<svg width="1272" height="1324" viewBox="0 0 1272 1324" fill="none" xmlns="http://www.w3.org/2000/svg">
<path d="M1008.7 477.375C1008.7 483.875 1011.2 513.876 1004.2 525.876L1026.59 573.875C1032.92 569.042 1050.09 560.375 1062.09 556.375C1077.09 551.375 1093.7 561.876 1099.2 561.876C1104.7 561.876 1187.2 474.376 1191.2 478.876C1195.2 483.376 1240.7 494.876 1261.2 470.376C1281.7 445.876 1256.2 411.376 1237.7 404.376C1219.2 397.376 1008.7 470.875 1008.7 477.375Z" fill="#151D3B" stroke="#D82148" stroke-width="5"/>
<path d="M384.085 343.875C354.885 335.475 343.919 324.709 342.085 320.375C335.252 298.042 321.685 251.875 322.085 245.875C322.585 238.375 319.585 212.875 322.085 200.875C324.585 188.875 322.085 162.875 329.085 152.875C336.085 142.875 373.085 110.375 419.585 116.375C466.085 122.375 499.085 135.875 502.585 152.875C506.085 169.875 498.585 201.875 502.585 208.875C506.585 215.875 505.085 228.875 505.085 238.375C505.085 247.875 507.585 252.375 505.085 259.875C503.085 265.875 502.585 278.709 502.585 284.375C501.919 287.042 499.585 294.575 495.585 303.375C490.585 314.375 420.585 354.375 384.085 343.875Z" fill="#151D3B" stroke="#D82148" stroke-width="5"/>
<path d="M647.916 1297.64C648.518 1291.57 649.026 1285.84 649.08 1283.29C650.75 1278.13 651.65 1274.91 652.005 1272.75C652.189 1271.63 652.251 1270.65 652.142 1269.77C652.026 1268.83 651.729 1268.11 651.369 1267.49C651.12 1267.06 650.924 1266.78 650.756 1266.54C650.443 1266.09 650.227 1265.78 649.939 1264.92C649.515 1263.66 649.085 1261.38 649.085 1256.88C649.085 1247.5 649.099 1243.71 649.839 1240.35C650.435 1237.64 651.491 1235.24 653.601 1230.44C654.126 1229.24 654.715 1227.9 655.379 1226.37C658.789 1218.5 659.707 1211.91 659.772 1204.96C659.803 1201.67 659.641 1198.28 659.47 1194.69L659.449 1194.25C659.269 1190.48 659.085 1186.43 659.085 1181.88V1151.88C659.085 1148.25 657.869 1144.26 656.234 1140.35C654.584 1136.41 652.401 1132.33 650.273 1128.48C649.788 1127.6 649.308 1126.74 648.836 1125.89C647.21 1122.98 645.693 1120.25 644.485 1117.8C643.71 1116.22 643.096 1114.82 642.679 1113.61C642.253 1112.37 642.085 1111.48 642.085 1110.88C642.085 1106.88 642.086 1098.74 642.948 1089.74C643.816 1080.69 645.536 1071.03 648.85 1063.93C650.567 1060.25 651.618 1057.7 651.9 1055.84C652.054 1054.82 652.023 1053.77 651.576 1052.76C651.136 1051.77 650.423 1051.13 649.835 1050.69C649.472 1050.42 648.992 1050.11 648.572 1049.84C648.4 1049.73 648.238 1049.63 648.099 1049.53C647.532 1049.16 646.932 1048.73 646.292 1048.15C645.027 1047.01 643.462 1045.16 641.836 1041.79C638.974 1035.86 637.563 1032.33 636.586 1029.89C636.383 1029.38 636.198 1028.92 636.023 1028.49C635.511 1027.24 635.037 1026.18 634.382 1025.15C633.719 1024.11 632.927 1023.18 631.853 1022.11C631.861 1022.12 631.865 1022.12 631.866 1022.12C631.867 1022.12 631.763 1021.99 631.584 1021.61C631.391 1021.2 631.171 1020.64 630.935 1019.91C630.462 1018.46 629.976 1016.53 629.501 1014.26C628.553 1009.71 627.689 1003.98 627.07 998.352C626.45 992.713 626.086 987.258 626.116 983.253C626.131 981.228 626.248 979.702 626.439 978.74C626.449 978.69 626.459 978.643 626.469 978.599C626.811 978.467 627.101 978.312 627.32 978.188C627.887 977.865 628.486 977.434 629.085 976.959C630.29 976.004 631.726 974.683 633.283 973.166C636.054 970.465 639.379 966.973 642.745 963.438C643.17 962.992 643.595 962.546 644.019 962.1C647.841 958.091 651.636 954.143 654.778 951.2C656.354 949.724 657.709 948.555 658.784 947.769C659.324 947.374 659.738 947.117 660.035 946.968C660.131 946.92 660.199 946.891 660.241 946.874C666.155 946.813 674.866 943.289 680.748 933.128C682.238 930.555 683.092 928.237 683.308 925.955C683.527 923.646 683.073 921.588 682.287 919.586C681.576 917.777 680.545 915.906 679.457 913.93L679.228 913.514C678.031 911.337 676.701 908.886 675.373 905.868C675.144 905.348 674.924 904.85 674.712 904.372C672.289 898.898 671.049 896.095 671.388 892.218C671.772 887.83 674.232 881.909 680.772 870.085C690.999 851.599 707.714 834.092 725.488 827.206L727.056 826.599L727.084 824.917C727.497 800.238 733.58 762.687 739.357 730.885C741.149 721.017 742.903 711.752 744.443 703.612C745.384 698.64 746.246 694.087 746.988 690.072C747.964 684.8 748.734 680.452 749.199 677.35C749.43 675.807 749.593 674.519 749.664 673.56C749.699 673.089 749.717 672.622 749.695 672.211C749.684 672.01 749.659 671.743 749.591 671.46C749.549 671.282 749.42 670.77 749.012 670.282C748.96 670.186 748.879 670.019 748.77 669.762C748.552 669.252 748.279 668.523 747.953 667.58C747.305 665.699 746.499 663.109 745.584 660.011C743.757 653.823 741.529 645.722 739.312 637.476C737.406 630.389 735.501 623.17 733.87 616.988C731.724 608.855 730.052 602.518 729.474 600.64C728.502 597.479 726.768 590.677 725.27 584.245C724.523 581.041 723.841 577.958 723.348 575.501C723.102 574.27 722.905 573.213 722.772 572.383C722.629 571.497 722.585 571.025 722.585 570.875C722.585 570.208 722.436 569.367 722.262 568.562C722.076 567.694 721.81 566.646 721.488 565.471C720.842 563.118 719.939 560.158 718.903 556.925C716.83 550.453 714.195 542.8 711.937 536.528C711.769 536.062 711.599 535.587 711.426 535.105C706.973 522.705 700.796 505.504 687.058 487.84C679.648 478.313 668.649 472.483 658.88 468.613C653.973 466.67 649.301 465.193 645.471 463.997L645.109 463.884C641.348 462.71 638.675 461.875 637.203 461.139C633.389 459.232 628.089 457.926 623.203 456.813C622.421 456.635 621.65 456.461 620.895 456.292C616.743 455.359 613.047 454.528 610.482 453.542C608.641 452.834 604.674 451.886 600.007 450.856C596.685 450.123 592.873 449.32 588.977 448.499C587.295 448.144 585.597 447.787 583.916 447.43C578.32 446.242 572.908 445.063 568.778 444.028C566.707 443.51 565.008 443.039 563.786 442.634C563.171 442.429 562.73 442.259 562.445 442.126C562.412 442.111 562.383 442.098 562.358 442.085C560.55 439.722 557.715 434.545 553.321 425.757C551.175 421.465 550.628 419.195 550.297 417.316C550.239 416.99 550.187 416.663 550.133 416.328C549.857 414.606 549.55 412.692 548.392 409.914C547.576 407.954 546.044 406.111 544.357 404.416C542.641 402.692 540.557 400.921 538.441 399.147C538.202 398.947 537.963 398.746 537.723 398.546C533.618 395.11 529.447 391.617 526.571 387.857C523.633 384.015 520.327 382.498 517.07 383.343C516.318 383.538 515.633 383.845 515.015 384.223C514.888 382.434 515.105 380.787 515.77 379.589C515.779 379.573 515.897 379.386 516.404 379.09C516.902 378.8 517.599 378.505 518.531 378.185C519.384 377.891 520.333 377.609 521.397 377.294L521.671 377.212C522.824 376.869 524.083 376.491 525.35 376.047C530.316 374.306 536.309 371.239 537.551 363.786C538.502 358.081 540.019 354.401 542.073 351.148C543.673 348.615 545.578 346.352 547.952 343.533C548.751 342.583 549.603 341.571 550.515 340.464C554.357 335.799 555.76 331.718 556.437 326.71C556.734 324.511 556.895 322.106 557.073 319.449C557.09 319.186 557.108 318.921 557.126 318.653C557.328 315.648 557.575 312.233 558.067 308.176C559.062 299.961 560.148 295.637 561.954 292.408C563.757 289.184 566.385 286.838 571.195 282.788C572.765 281.465 574.059 279.495 575.158 277.288C576.277 275.044 577.291 272.357 578.219 269.417C580.075 263.536 581.659 256.408 583.039 249.288C584.072 243.96 585.001 238.578 585.846 233.682C586.131 232.034 586.406 230.442 586.672 228.925C587.747 222.798 588.654 218.074 589.456 215.666C589.779 214.699 590.106 213.735 590.435 212.764C593.693 203.159 597.196 192.834 598.579 172.545C599.326 161.584 599.036 156.562 596.758 152.007C595.74 149.971 594.347 148.079 592.731 145.885C592.622 145.738 592.513 145.59 592.403 145.441C590.614 143.009 588.413 139.981 585.718 135.572C582.96 131.058 581.077 127.971 579.772 125.683C578.461 123.385 577.813 122.029 577.456 120.96C577.122 119.955 577.014 119.117 576.941 117.757C576.922 117.415 576.906 117.038 576.888 116.62C576.835 115.369 576.766 113.755 576.575 111.649C576.065 106.044 575.545 103.397 574.812 100.665C574.631 99.9922 574.443 99.3307 574.243 98.6262C573.649 96.5428 572.949 94.0832 572.028 89.8442C571.269 86.3547 568.939 82.7818 566.067 79.3736C563.148 75.9106 559.436 72.3498 555.564 68.8867C552.707 66.3322 549.713 63.7867 546.849 61.3516C545.832 60.487 544.831 59.6363 543.859 58.8041C540.111 55.5959 536.796 52.672 534.395 50.1511C524.166 39.4104 515.892 33.7193 503.092 28.0868C495.378 24.6927 486.238 19.8196 477.251 15.0279C471.721 12.0796 466.249 9.16224 461.203 6.63909C454.469 3.27224 450.237 2.76538 446.469 4.3925C444.862 5.08637 443.463 6.12965 442.207 7.06544C442.137 7.11775 442.068 7.16971 441.998 7.22126C440.631 8.23876 439.253 9.24615 437.467 10.1391C433.766 11.9894 426.65 14.1871 418.3 15.7953C409.987 17.3962 400.708 18.3629 392.736 17.8797C376.307 16.884 358.366 16.2544 343.031 28.4164C338.647 31.8938 331.717 36.4939 323.937 41.6588C318.982 44.9479 313.682 48.4661 308.475 52.0693C301.86 56.6466 295.448 61.3293 290.295 65.7418C285.237 70.0727 281.051 74.4205 279.3 78.3598C276.185 85.3697 273.142 96.8436 270.701 108.487C268.249 120.178 266.356 132.277 265.595 140.649C264.832 149.04 265.185 152.892 266.245 156.568C266.584 157.742 266.952 158.791 267.344 159.911C268.179 162.294 269.125 164.994 270.137 169.882C271.608 176.993 271.821 180.632 271.59 184.214C271.487 185.816 271.294 187.416 271.059 189.371C271.022 189.676 270.985 189.99 270.946 190.314C270.663 192.692 270.345 195.519 270.091 199.203C270.091 199.203 270.091 199.203 270.091 199.203L270.053 199.755L270.048 199.818C269.545 207.1 268.827 217.502 269.49 227.159C269.823 232.004 270.509 236.762 271.789 240.903C273.061 245.018 274.989 248.75 277.966 251.28C279.724 252.775 281.087 253.922 282.187 254.848C284.258 256.592 285.4 257.553 286.509 258.582C287.971 259.94 289.337 261.383 292.686 264.921C293.17 265.433 293.696 265.989 294.27 266.594C298.677 271.246 301.045 274.467 302.735 277.379C303.957 279.488 304.824 281.418 305.866 283.741C306.306 284.721 306.777 285.77 307.319 286.932C308.984 290.5 310.441 294.97 311.811 299.641C312.346 301.467 312.875 303.346 313.396 305.199C314.179 307.985 314.947 310.714 315.699 313.121C317.318 318.302 318.953 322.698 321.098 328.463C322.29 331.669 323.64 335.299 325.233 339.722C326.258 342.571 328.206 345.692 330.545 348.794C332.906 351.927 335.771 355.175 338.754 358.291C344.381 364.169 350.53 369.68 354.759 373.196L360.386 409.771C352.752 415.501 337.778 427.146 330.817 434.107C326.433 438.491 320.905 443.292 312.674 447.317C304.434 451.347 293.372 454.654 277.887 455.883C261.584 457.177 250.064 462.892 239.809 469.388C236.898 471.233 234.128 473.109 231.4 474.956C224.416 479.686 217.71 484.228 209.63 487.565C197.586 492.539 191.781 498.94 187.828 506.177C186.173 509.207 184.843 512.386 183.529 515.525C183.319 516.027 183.109 516.529 182.898 517.029C181.353 520.695 179.725 524.363 177.453 528.069C168.048 543.414 161.643 551.797 146.71 568.721C142.622 573.354 139.137 576.966 135.974 580.243C127.737 588.779 121.69 595.044 112.89 611.178C107.353 621.329 105.633 627.617 103.663 634.817C103.443 635.62 103.22 636.435 102.989 637.268C100.728 645.396 97.5537 655.561 87.9832 674.491C84.0166 679.262 81.0406 684.377 78.4045 688.907C77.5162 690.434 76.6666 691.894 75.8307 693.253C72.3693 698.877 69.1335 702.82 64.2635 704.514C54.4441 707.929 49.2805 712.88 40.4097 721.386C38.3119 723.397 36.0067 725.608 33.3837 728.043C25.8752 735.015 21.4273 745.958 20.2389 753.683C19.9379 755.639 19.8297 757.485 19.9671 759.079C20.0972 760.589 20.477 762.248 21.4914 763.467C22.0387 764.124 22.7808 764.661 23.7148 764.908C24.6332 765.151 25.5419 765.063 26.3584 764.807C27.9068 764.321 29.4188 763.143 30.8914 761.603L31.0923 761.393L31.2396 761.143C33.6907 756.976 35.8898 753.76 40.3495 751.475C44.9263 749.131 52.1817 747.628 65.0367 747.875C71.5113 747.999 75.6024 748.31 78.2635 748.775C80.9315 749.242 81.8362 749.813 82.254 750.203C82.4759 750.41 82.6693 750.667 82.9167 751.09C83.0413 751.303 83.1637 751.53 83.318 751.816L83.3352 751.848C83.491 752.136 83.6733 752.473 83.8824 752.829C84.7713 754.342 86.0587 756.051 88.6211 757.902C90.9406 759.577 92.7938 761.177 94.5734 762.714C99.2696 766.77 103.454 770.383 114.344 773.763C120.189 775.577 122.728 776.423 125.296 777.175C129.123 778.296 133.011 779.208 148.001 782.806C159.764 785.629 167.185 792.552 172.08 799.119C174.536 802.414 176.344 805.603 177.755 808.161C177.873 808.375 177.989 808.586 178.104 808.795C178.66 809.805 179.174 810.742 179.63 811.491C179.908 811.949 180.198 812.396 180.498 812.784C180.575 812.885 180.662 812.994 180.759 813.105C180.764 813.201 180.769 813.309 180.773 813.431C180.802 814.275 180.803 815.542 180.776 817.231C180.721 820.597 180.552 825.5 180.283 831.737C179.746 844.205 178.811 861.927 177.597 883.178C175.168 925.676 171.621 982.246 167.903 1039.02C164.184 1095.8 160.294 1152.78 157.177 1196.09C155.619 1217.75 154.254 1235.99 153.201 1249.07C152.675 1255.62 152.227 1260.86 151.872 1264.6C151.695 1266.47 151.542 1267.95 151.415 1269.02C151.352 1269.56 151.297 1269.98 151.25 1270.28C151.206 1270.57 151.181 1270.68 151.182 1270.68C151.182 1270.68 151.183 1270.68 151.184 1270.68C150.624 1272.59 150.094 1275.75 149.599 1279.45C149.096 1283.22 148.608 1287.71 148.159 1292.37C147.26 1301.7 146.508 1311.78 146.09 1318.21L145.915 1320.91L148.614 1320.88L396.029 1318L397.93 1317.98L398.417 1316.14C399.593 1311.7 400.278 1306.53 400.85 1301.49C400.99 1300.25 401.123 1299.03 401.254 1297.81C401.668 1294 402.065 1290.34 402.61 1287.03C403.341 1282.61 404.272 1279.31 405.558 1277.37C406.165 1276.45 406.75 1276 407.287 1275.79C407.805 1275.6 408.566 1275.52 409.754 1275.89C410.24 1276.04 410.733 1276.4 411.227 1277.27C411.747 1278.19 412.175 1279.51 412.513 1281.29C413.031 1284.01 413.256 1287.26 413.503 1290.84C413.582 1291.98 413.663 1293.16 413.757 1294.37C414.132 1299.17 414.709 1304.32 416.318 1308.57C417.957 1312.91 420.819 1316.66 425.893 1317.93C426.26 1318.02 426.727 1318.06 427.096 1318.09C427.322 1318.11 427.58 1318.13 427.866 1318.15C428.129 1318.16 428.417 1318.18 428.727 1318.19C430.024 1318.25 431.786 1318.31 433.954 1318.36C438.295 1318.46 444.324 1318.54 451.656 1318.61C466.322 1318.73 486.237 1318.79 508.367 1318.78C552.627 1318.76 605.768 1318.48 643.531 1318L645.736 1317.97L645.984 1315.78C646.499 1311.23 647.272 1304.14 647.916 1297.64Z" fill="#151D3B" stroke="#D82148" stroke-width="5"/>
<path d="M401.085 979.375C401.085 980.575 362.418 1014.21 343.085 1030.88L330.585 1013.88L387.585 967.375C392.085 970.875 401.085 978.175 401.085 979.375Z" stroke="black"/>
<path d="M176.585 1168.37C168.985 1175.97 127.752 1181.87 108.085 1183.87C59.0851 1165.37 74.0851 1181.88 88.0851 1204.38C102.085 1226.88 142.085 1231.88 160.085 1231.38C178.085 1230.88 231.585 1199.38 253.085 1168.37C274.585 1137.37 336.585 1076.88 348.085 1067.38C359.585 1057.88 399.585 1052.38 418.085 1050.38C436.585 1048.38 474.085 1026.38 488.085 1019.88C502.085 1013.38 502.585 983.875 499.085 987.875C495.585 991.875 468.585 1004.88 443.085 1001.88C417.585 998.875 414.585 982.875 407.085 955.375C399.585 927.875 430.085 851.375 433.085 846.875C436.085 842.375 440.085 825.375 430.085 823.875C420.085 822.375 380.585 857.375 366.085 871.375C351.585 885.375 274.585 906.375 250.085 910.375C225.585 914.375 176.585 957.875 176.585 963.875C176.585 969.875 211.585 1070.37 218.085 1106.37C224.585 1142.37 186.085 1158.87 176.585 1168.37Z" stroke="black"/>
<path d="M429.085 182.876C429.585 180.375 435.418 177.709 437.085 177.876C438.418 177.876 441.485 178.276 443.085 179.876C445.085 181.876 443.585 183.375 442.585 184.875C441.708 186.191 437.085 186.876 433.585 186.376C430.085 185.876 428.595 185.327 429.085 182.876Z" stroke="black"/>
<path d="M347.085 196.375C345.485 194.375 349.085 190.875 351.085 189.375C353.085 187.875 356.585 190.375 358.585 192.875C360.585 195.375 357.085 197.375 354.585 198.875C352.085 200.375 349.085 198.875 347.085 196.375Z" stroke="black"/>
<path d="M367.585 234.375C363.585 238.542 355.085 248.975 353.085 257.375" stroke="black"/>
<path d="M420.085 232.875C427.418 234.542 442.585 239.975 444.585 248.375C447.085 258.875 447.585 268.375 447.585 270.875" stroke="black"/>
<path d="M373.585 227.375C372.385 225.375 375.085 223.875 376.585 223.375C377.385 222.575 379.585 223.042 380.585 223.375C383.085 223.375 381.085 230.875 378.085 230.875C375.085 230.875 375.085 229.875 373.585 227.375Z" stroke="black"/>
<path d="M686.578 929.5C675.578 916.333 655.078 884.5 661.078 862.5C668.578 835 667.578 835 673.078 822.5C678.578 810 693.578 725.5 690.078 709C686.578 692.5 684.078 676 682.078 665" stroke="#D82148" stroke-width="5"/>
<path d="M395.085 222.875C395.085 221.375 396.585 221.375 398.085 220.375C399.585 219.59 402.085 221.875 402.585 223.875C403.085 225.875 401.085 228.375 399.585 227.875C398.085 227.375 396.085 227.875 395.085 226.375C394.085 224.875 395.085 224.375 395.085 222.875Z" stroke="black"/>
<path d="M551.585 533.375V651.375C554.785 658.975 584.252 674.542 598.585 681.375C600.918 665.542 605.385 630.475 604.585 616.875C603.585 599.875 608.585 548.375 608.585 531.375V459.375C608.585 454.375 556.585 437.375 559.585 441.875C562.585 446.375 559.585 492.875 556.585 503.875C553.585 514.875 551.585 519.875 551.585 533.375Z" stroke="black"/>
<path d="M574.585 741.375C571.385 742.975 564.918 738.709 562.085 736.375C561.085 733.042 559.185 725.175 559.585 720.375C560.085 714.375 552.085 698.875 550.585 691.875C549.085 684.875 550.585 680.375 550.585 672.875C550.585 665.376 549.585 654.875 553.085 653.875C556.585 652.875 574.585 662.375 576.585 663.875C578.585 665.375 592.085 675.875 598.085 680.375C604.085 684.875 597.585 710.875 594.585 714.375C591.585 717.875 587.585 720.875 585.085 723.875C582.585 726.875 578.585 739.375 574.585 741.375Z" stroke="black"/>
<path d="M363.085 415.375C363.085 411.375 356.085 359.708 352.585 334.375C404.585 369.175 481.252 321.875 513.085 293.875C510.918 299.208 506.585 311.875 506.585 319.875C506.585 329.875 503.585 358.875 509.585 380.875C515.585 402.875 516.085 393.875 518.085 404.875C520.085 415.875 517.085 453.875 506.585 467.875C496.085 481.875 498.585 483.875 491.085 500.875C483.585 517.875 480.585 574.375 467.085 592.875C453.585 611.375 458.585 632.375 456.585 680.375C454.585 728.375 444.585 849.375 435.585 843.875C426.585 838.375 401.085 832.875 385.085 817.875C369.085 802.875 349.085 776.375 345.585 759.375C342.085 742.375 345.085 729.875 345.585 708.375C346.085 686.875 348.085 665.375 349.085 648.375C350.085 631.375 340.585 612.375 340.585 592.875C340.585 573.375 334.085 517.375 334.085 505.375C334.085 493.375 338.585 461.375 340.585 447.875C342.585 434.375 363.085 420.375 363.085 415.375Z" stroke="black"/>
<path d="M502.085 293.375C505.085 295.875 510.085 293.375 521.085 294.875C532.085 296.375 531.585 294.375 533.585 289.375C535.585 284.375 538.085 279.875 540.585 274.875C543.085 269.875 540.585 263.875 545.085 260.375C548.457 257.752 547.085 252.375 546.585 243.875C546.085 235.375 541.085 231.375 536.585 232.875C532.985 234.075 521.418 233.375 516.085 232.875C513.752 233.709 508.385 235.875 505.585 237.875" stroke="black"/>
<path d="M325.085 261.375C321.918 261.042 313.285 261.176 312.085 264.376C310.585 268.376 314.085 279.375 315.585 284.875C317.085 290.375 319.585 294.875 320.085 300.875C320.585 306.875 323.085 310.375 323.085 315.875C323.085 321.375 338.085 321.375 339.085 320.875C339.885 320.475 341.418 319.375 342.085 318.875" stroke="black"/>
<path d="M372.085 304.375C373.585 297.042 380.614 285.375 397.585 285.375C422.085 285.375 430.585 289.375 433.585 298.875" stroke="black"/>
<path d="M384.085 343.875C354.885 335.475 343.919 324.709 342.085 320.375C335.252 298.042 321.685 251.875 322.085 245.875C322.585 238.375 319.585 212.875 322.085 200.875C324.585 188.875 322.085 162.875 329.085 152.875C336.085 142.875 373.085 110.375 419.585 116.375C466.085 122.375 499.085 135.875 502.585 152.875C506.085 169.875 498.585 201.875 502.585 208.875C506.585 215.875 505.085 228.875 505.085 238.375C505.085 247.875 507.585 252.375 505.085 259.875C503.085 265.875 502.585 278.709 502.585 284.375C501.919 287.042 499.585 294.575 495.585 303.375C490.585 314.375 420.585 354.375 384.085 343.875Z" stroke="#D82148" stroke-width="5"/>
<path d="M367.085 270.875C373.252 263.708 394.285 251.875 429.085 261.875" stroke="black"/>
<path d="M390.085 253.375C376.885 254.975 368.918 266.875 366.585 271.875C370.585 267.875 384.585 264.875 395.585 263.375C406.585 261.875 434.585 265.875 429.085 260.875C423.585 255.875 406.585 251.375 390.085 253.375Z" stroke="black"/>
<path d="M376.585 183.875C376.085 191.042 374.185 207.475 370.585 215.875C366.085 226.375 368.085 233.875 370.585 236.375C373.085 238.875 377.309 240.784 382.085 236.375C388.585 230.375 393.085 230.375 400.585 234.875C404.248 237.073 410.585 238.375 414.085 231.375C417.585 224.375 408.085 217.875 405.085 202.875C402.685 190.875 401.752 184.208 401.585 182.375" stroke="black"/>
<path d="M278.085 994.875C281.285 990.475 270.418 957.708 264.585 941.875C257.585 934.875 238.585 947.375 239.585 954.875C240.585 962.375 255.585 1006.88 259.585 1007.38C263.585 1007.88 274.085 1000.38 278.085 994.875Z" stroke="black"/>
<path d="M70.585 1135.88L83.085 1139.88L117.085 1118.88L123.585 1107.88L101.585 1038.88H89.085L51.585 1060.38L69.085 1135.88" stroke="black"/>
<path d="M43.5852 976.875C49.9852 958.475 80.9185 928.542 95.5852 915.875C111.252 896.375 157.285 857.775 216.085 859.375C289.585 861.375 359.585 795.375 402.085 747.875C444.585 700.375 509.585 687.875 543.085 694.375C576.188 700.798 562.423 736.513 559.679 743.631L559.585 743.875C557.085 750.375 536.585 764.375 528.585 770.375C520.585 776.375 505.085 787.875 492.585 798.375C482.585 806.775 481.752 817.208 482.585 821.375L1003.09 525.375V587.875L689.585 780.375C643.252 808.708 549.085 866.175 543.085 869.375C535.585 873.375 516.585 893.875 520.085 897.875C523.585 901.875 523.085 915.875 512.585 922.875C502.085 929.875 470.585 944.375 462.585 950.875C454.585 957.375 447.585 975.375 455.085 983.375C462.585 991.375 489.085 974.375 516.585 975.375C544.085 976.375 560.085 1016.38 531.085 1042.88C502.085 1069.38 470.085 1078.38 412.585 1086.38C355.085 1094.38 332.585 1140.38 312.085 1165.88C295.685 1186.28 255.919 1224.38 238.085 1240.88C213.085 1257.88 152.585 1282.97 110.585 1247.38C58.0852 1202.88 52.5852 1160.88 48.5852 1149.88C44.5852 1138.88 33.0852 1081.88 28.5852 1043.38C24.0852 1004.88 35.5852 999.875 43.5852 976.875Z" stroke="black"/>
<path d="M26.0851 765.875C21.0851 772.375 10.5851 781.875 9.58505 786.875C8.58505 791.875 2.58505 816.875 6.08505 825.375C9.58505 833.875 8.58508 832.875 18.0851 840.875C27.5851 848.875 31.0851 847.375 39.0851 854.875C47.0851 862.375 50.0851 864.875 60.5851 864.875C71.0851 864.875 80.5851 866.875 86.0851 864.875C91.5851 862.875 93.0851 861.875 93.5851 864.875C94.0851 867.875 92.0851 883.875 94.5851 891.375C97.0851 898.875 91.5851 905.875 96.0851 913.375C100.585 920.875 105.585 927.375 105.585 935.875C105.585 944.375 107.585 956.375 111.585 960.375C115.585 964.375 131.085 968.875 137.585 972.875C144.085 976.875 147.085 976.375 154.585 982.375C162.085 988.375 167.085 991.375 173.585 991.375C180.085 991.375 183.085 990.875 183.085 985.375C183.085 979.875 184.585 978.875 179.085 973.875C173.585 968.875 176.085 969.375 170.085 964.875C164.085 960.375 163.585 962.875 163.585 957.375C163.585 951.875 163.585 950.875 161.585 945.875C159.585 940.875 158.585 940.875 159.085 938.375C159.585 935.875 161.585 933.375 163.585 935.875C165.585 938.375 165.585 944.875 168.585 951.875C171.585 958.875 173.585 962.875 173.585 964.875C173.585 966.875 185.085 980.375 187.085 987.875C189.085 995.375 196.085 1009.38 199.585 1017.38C203.085 1025.38 210.585 1039.38 217.585 1036.88C224.585 1034.38 230.085 1028.88 227.085 1018.38C224.085 1007.88 214.085 983.375 212.585 979.375C211.085 975.375 209.585 971.375 206.085 962.875C202.585 954.375 205.585 953.375 199.585 945.875C193.585 938.375 189.085 931.875 189.585 927.875C190.085 923.875 194.085 920.875 197.585 924.375C201.085 927.875 207.085 946.375 210.585 951.875C214.085 957.375 219.085 967.375 222.585 973.875C226.085 980.375 236.085 1007.38 241.085 1007.38C246.085 1007.38 252.585 1005.38 253.585 1000.88C254.585 996.375 255.585 984.875 253.585 976.875C251.585 968.875 249.085 964.375 246.085 955.875C243.085 947.375 242.085 943.375 240.085 938.875C238.085 934.375 232.085 922.375 230.585 919.875C229.085 917.375 235.585 937.375 242.085 938.875C248.585 940.375 257.085 940.875 257.585 935.875C258.085 930.875 264.085 931.375 257.585 927.875C251.085 924.375 252.085 928.875 246.085 919.875C240.085 910.875 235.585 910.375 229.085 900.875C222.585 891.375 215.085 873.375 210.585 862.375C206.085 851.375 183.085 801.875 172.085 794.375C161.085 786.875 163.585 784.875 149.585 781.375C135.585 777.875 131.585 775.875 120.085 773.375C108.585 770.875 99.5851 766.875 94.5851 761.375C89.5851 755.875 87.5851 750.875 80.5851 749.375C73.5851 747.875 53.0851 746.375 46.0851 747.875C39.0851 749.375 28.085 761.875 26.0851 765.875Z" stroke="black"/>
<path d="M689.085 859.375C684.752 863.542 675.785 873.475 674.585 879.875C673.085 887.875 669.085 888.875 673.085 901.375C677.085 913.875 673.585 912.375 689.085 924.875C704.585 937.375 702.585 944.375 720.085 941.875C737.585 939.375 747.585 927.875 758.085 924.875C768.585 921.875 777.585 917.375 786.585 914.375C795.585 911.375 799.585 911.375 804.085 898.875C808.585 886.375 807.585 883.875 821.085 876.375C834.585 868.875 836.585 868.875 840.085 859.375C843.585 849.875 843.085 820.875 836.085 811.875C829.085 802.875 826.085 770.875 821.085 763.375C816.085 755.875 812.585 745.875 811.585 732.375C810.585 718.875 816.085 705.875 811.585 697.875C807.085 689.875 808.585 681.375 795.085 675.875C781.585 670.375 785.585 668.875 775.585 668.375C765.585 667.875 762.085 665.375 758.085 668.375C754.085 671.375 749.585 668.375 752.085 674.375C754.585 680.375 750.085 681.375 760.085 686.375C770.085 691.375 771.585 688.375 775.585 697.875C779.585 707.375 778.585 707.875 779.585 716.375C780.585 724.875 779.585 723.375 779.585 729.875C779.585 736.375 782.585 735.875 775.585 740.375C768.585 744.875 771.085 745.875 765.585 746.375C760.085 746.875 757.585 738.875 752.085 729.875C746.585 720.875 744.085 718.375 742.085 712.875C740.085 707.375 737.585 704.375 730.085 707.375C722.585 710.375 715.585 708.875 715.585 716.375C715.585 723.875 716.585 724.375 720.085 732.375C723.585 740.375 729.085 748.376 734.585 755.875C738.985 761.875 741.419 764.709 742.085 765.375L734.585 761.375C731.085 757.375 723.485 748.475 721.085 744.875C718.085 740.375 717.585 737.875 714.085 733.875C710.585 729.875 713.085 728.375 709.085 725.375C705.085 722.375 702.085 722.875 698.085 725.375C694.085 727.875 689.085 731.875 689.085 738.375C689.085 744.875 692.585 748.375 697.085 754.875C701.585 761.375 699.585 757.875 705.585 765.375C711.585 772.875 717.585 782.875 721.085 785.875C723.885 788.275 718.919 783.875 716.085 781.375C708.419 770.209 692.785 748.175 691.585 749.375C690.085 750.875 686.585 750.375 685.085 754.875C683.585 759.375 681.085 760.875 683.085 767.375C685.085 773.875 686.085 776.875 688.085 781.375C690.085 785.875 695.585 793.375 700.585 799.875C705.585 806.375 709.085 811.875 713.085 819.375C717.085 826.875 720.085 826.875 718.085 829.875C716.485 832.275 698.085 850.542 689.085 859.375Z" stroke="#D82148"/>
<path d="M53.085 1064.88L1003.08 528.875" stroke="black"/>
<path d="M59.085 1086.88L1001.58 542.375" stroke="black"/>
<path d="M61.585 1103.88L1003.08 557.375" stroke="black"/>
<path d="M67.585 1124.38L1003.08 572.375" stroke="black"/>
<path d="M207.085 1007.38C207.085 1012.58 221.418 1043.21 228.585 1057.88C235.741 1072.88 258.085 1043.38 255.085 1032.38C252.085 1021.38 228.585 998.875 223.585 995.375C218.585 991.875 207.085 1000.88 207.085 1007.38Z" stroke="black"/>
<path d="M351.585 184.375C343.985 184.375 341.085 197.042 340.585 203.375C345.085 204.875 370.585 192.875 369.585 190.375C368.585 187.875 361.085 184.375 351.585 184.375Z" stroke="black"/>
<path d="M453.585 183.875C455.585 189.075 434.418 187.042 423.585 185.375C423.585 181.875 431.085 176.375 434.585 174.875C438.085 173.375 451.085 177.375 453.585 183.875Z" stroke="black"/>
<path d="M429.085 182.876C429.585 180.375 435.418 177.709 437.085 177.876C438.418 177.876 441.485 178.276 443.085 179.876C445.085 181.876 443.585 183.375 442.585 184.875C441.708 186.191 437.085 186.876 433.585 186.376C430.085 185.876 428.595 185.327 429.085 182.876Z" fill="#D82148" stroke="#151D3B"/>
<path d="M347.085 196.375C345.485 194.375 349.085 190.875 351.085 189.375C353.085 187.875 356.585 190.375 358.585 192.875C360.585 195.375 357.085 197.375 354.585 198.875C352.085 200.375 349.085 198.875 347.085 196.375Z" fill="#D82148" stroke="#151D3B"/>
<path d="M367.585 234.375C363.585 238.542 355.085 248.975 353.085 257.375" stroke="#D82148" stroke-width="3"/>
<path d="M308.137 449C294.803 469.5 267.737 513.8 266.137 527C264.137 543.5 284.637 617 291.637 646C298.637 675 291.137 723 301.137 756.5C311.137 790 334 824 347 834" stroke="#D82148" stroke-width="5"/>
<path d="M420.085 232.875C427.418 234.542 442.585 239.975 444.585 248.375C447.085 258.875 447.585 268.375 447.585 270.875" stroke="#D82148" stroke-width="3"/>
<path d="M373.585 227.375C372.385 225.375 375.085 223.875 376.585 223.375C377.385 222.575 379.585 223.042 380.585 223.375C383.085 223.375 381.085 230.875 378.085 230.875C375.085 230.875 375.085 229.875 373.585 227.375Z" stroke="#D82148" stroke-width="3"/>
<path d="M395.085 222.875C395.085 221.375 396.585 221.375 398.085 220.375C399.585 219.59 402.085 221.875 402.585 223.875C403.085 225.875 401.085 228.375 399.585 227.875C398.085 227.375 396.085 227.875 395.085 226.375C394.085 224.875 395.085 224.375 395.085 222.875Z" stroke="#D82148" stroke-width="3"/>
<path d="M551.585 533.375V651.375C554.785 658.975 584.252 674.542 598.585 681.375C600.918 665.542 605.385 630.475 604.585 616.875C603.585 599.875 608.585 548.375 608.585 531.375V459.375C608.585 454.375 556.585 437.375 559.585 441.875C562.585 446.375 559.585 492.875 556.585 503.875C553.585 514.875 551.585 519.875 551.585 533.375Z" fill="#151D3B" stroke="#D82148" stroke-width="5"/>
<path d="M574.585 741.375C571.385 742.975 564.918 738.709 562.085 736.375C561.085 733.042 559.185 725.175 559.585 720.375C560.085 714.375 552.085 698.875 550.585 691.875C549.085 684.875 550.585 680.375 550.585 672.875C550.585 665.376 549.585 654.875 553.085 653.875C556.585 652.875 574.585 662.375 576.585 663.875C578.585 665.375 592.085 675.875 598.085 680.375C604.085 684.875 597.585 710.875 594.585 714.375C591.585 717.875 587.585 720.875 585.085 723.875C582.585 726.875 578.585 739.375 574.585 741.375Z" fill="#151D3B" stroke="#D82148" stroke-width="5"/>
<path d="M648 1065C649.833 1059.83 651.3 1048.6 642.5 1045C631.5 1040.5 613 1033.5 594.5 1028C579.7 1023.6 582 1012.5 553 1022" stroke="#D82148" stroke-width="5" stroke-linecap="round"/>
<path d="M363.085 415.375C363.085 411.375 356.085 359.708 352.585 334.375C404.585 369.175 481.252 321.875 513.085 293.875C510.918 299.208 506.585 311.875 506.585 319.875C506.585 329.875 503.585 358.875 509.585 380.875C515.585 402.875 516.085 393.875 518.085 404.875C520.085 415.875 517.085 453.875 506.585 467.875C496.085 481.875 498.585 483.875 491.085 500.875C483.585 517.875 480.585 574.375 467.085 592.875C453.585 611.375 458.585 632.375 456.585 680.375C454.585 728.375 444.585 849.375 435.585 843.875C426.585 838.375 401.085 832.875 385.085 817.875C369.085 802.875 349.085 776.375 345.585 759.375C342.085 742.375 345.085 729.875 345.585 708.375C346.085 686.875 348.085 665.375 349.085 648.375C350.085 631.375 340.585 612.375 340.585 592.875C340.585 573.375 334.085 517.375 334.085 505.375C334.085 493.375 338.585 461.375 340.585 447.875C342.585 434.375 363.085 420.375 363.085 415.375Z" stroke="#D82148" stroke-width="5"/>
<path d="M502.085 293.375C505.085 295.875 510.085 293.375 521.085 294.875C532.085 296.375 531.585 294.375 533.585 289.375C535.585 284.375 538.085 279.875 540.585 274.875C543.085 269.875 540.585 263.875 545.085 260.375C548.457 257.752 547.085 252.375 546.585 243.875C546.085 235.375 541.085 231.375 536.585 232.875C532.985 234.075 521.418 233.375 516.085 232.875C513.752 233.709 508.385 235.875 505.585 237.875" stroke="#D82148" stroke-width="5"/>
<path d="M325.085 261.375C321.918 261.042 313.285 261.176 312.085 264.376C310.585 268.376 314.085 279.375 315.585 284.875C317.085 290.375 319.585 294.875 320.085 300.875C320.585 306.875 323.085 310.375 323.085 315.875C323.085 321.375 338.085 321.375 339.085 320.875C339.885 320.475 341.418 319.375 342.085 318.875" stroke="#D82148" stroke-width="5"/>
<path d="M372.085 304.375C373.585 297.042 380.614 285.375 397.585 285.375C422.085 285.375 430.585 289.375 433.585 298.875" stroke="#D82148" stroke-width="3"/>
<path d="M367.085 270.875C373.252 263.708 394.285 251.875 429.085 261.875" stroke="#D82148" stroke-width="3"/>
<path d="M390.085 253.375C376.885 254.975 368.918 266.875 366.585 271.875C370.585 267.875 384.585 264.875 395.585 263.375C406.585 261.875 434.585 265.875 429.085 260.875C423.585 255.875 406.585 251.375 390.085 253.375Z" stroke="#D82148" stroke-width="3"/>
<path d="M376.585 183.875C376.085 191.042 374.185 207.475 370.585 215.875C366.085 226.375 368.085 233.875 370.585 236.375C373.085 238.875 377.309 240.784 382.085 236.375C388.585 230.375 393.085 230.375 400.585 234.875C404.248 237.073 410.585 238.375 414.085 231.375C417.585 224.375 408.085 217.875 405.085 202.875C402.685 190.875 401.752 184.208 401.585 182.375" stroke="#D82148" stroke-width="3"/>
<path d="M278.085 994.875C281.285 990.475 270.418 957.708 264.585 941.875C257.585 934.875 238.585 947.375 239.585 954.875C240.585 962.375 255.585 1006.88 259.585 1007.38C263.585 1007.88 274.085 1000.38 278.085 994.875Z" fill="#151D3B" stroke="#D82148" stroke-width="5"/>
<path d="M570 460C569.6 454.8 561.667 444.333 559 441C556.333 433 550.3 415.5 547.5 409.5C544 402 518 378.5 515.5 384C513 389.5 526 413.5 519 430.5C512 447.5 497.5 491.5 495 498.5C492.5 505.5 471.5 585.5 469.5 589C467.5 592.5 458 610 456.5 635.5C455.3 655.9 456 735.667 456.5 773L485 751.5C487.5 750 498 731.5 506 711C514 690.5 506 684 506 670.5C506 657 514 644 520.5 629.5C527 615 526.5 600.5 529 589C531.5 577.5 546 530 551.5 514.5C557 499 555 494.5 556 488.5C556.8 483.7 565.667 476.167 570 473L561.5 464C564.5 464.833 570.4 465.2 570 460Z" fill="#151D3B" stroke="#D82148" stroke-width="5"/>
<path d="M1001.85 523.202L484.897 817.184C485.25 812.735 487.349 806.038 494.193 800.289C505.573 790.73 519.466 780.327 527.89 774.02C528.671 773.435 529.405 772.885 530.085 772.375C531.344 771.431 532.957 770.257 534.782 768.929C538.594 766.155 543.33 762.709 547.693 759.278C550.939 756.725 554.062 754.118 556.55 751.711C558.939 749.4 561.073 746.969 561.918 744.774C561.918 744.773 561.918 744.773 561.919 744.772L562.012 744.53L562.034 744.473C563.42 740.877 567.694 729.789 567.323 718.659C567.135 713.018 565.751 707.169 562.018 702.265C558.256 697.324 552.318 693.62 543.561 691.921C526.31 688.574 501.252 690.147 475.197 698.494C449.105 706.854 421.821 722.068 400.222 746.208C379.028 769.896 351.053 798.107 319.286 820.133C287.492 842.178 252.146 857.855 216.153 856.876C156.46 855.252 109.855 894.235 93.7798 914.131C86.3804 920.534 75.0027 931.176 64.638 942.54C54.2859 953.891 44.6118 966.314 41.2239 976.054C39.277 981.651 37.1152 986.163 34.9935 990.445C34.7723 990.891 34.5511 991.336 34.3302 991.78C32.445 995.57 30.5866 999.307 29.0535 1003.44C25.5723 1012.84 23.8181 1024.12 26.1021 1043.67C28.3618 1063 32.3739 1086.94 36.3178 1107.41C40.2438 1127.79 44.1537 1145 46.2357 1150.73C46.6949 1151.99 47.2089 1153.84 47.861 1156.19C49.7622 1163.04 52.837 1174.11 59.1473 1187.15C67.7303 1204.89 82.4416 1226.8 108.969 1249.28C130.715 1267.71 157.177 1270.34 181.125 1266.32C205.045 1262.29 226.753 1251.6 239.491 1242.94L239.646 1242.84L239.783 1242.71C257.59 1226.23 297.498 1188.01 314.034 1167.44C317.631 1162.97 321.251 1157.94 325.064 1152.65C343.454 1127.12 366.353 1095.33 412.93 1088.85C470.513 1080.84 503.176 1071.76 532.772 1044.72C547.964 1030.84 551.501 1013.24 547.428 998.88C543.382 984.622 531.724 973.424 516.676 972.877C502.996 972.379 489.616 976.189 478.9 979.24C478.48 979.36 478.064 979.478 477.652 979.595C472.099 981.173 467.434 982.45 463.708 982.876C459.877 983.313 457.915 982.738 456.909 981.665C454.088 978.656 453.686 973.311 455.426 967.252C457.134 961.303 460.651 955.668 464.162 952.815C465.976 951.341 469.27 949.31 473.52 946.922C477.725 944.56 482.709 941.936 487.804 939.279C488.874 938.721 489.951 938.161 491.027 937.601C500.104 932.877 509.149 928.171 513.972 924.955C519.873 921.021 522.929 915.141 524.034 909.752C524.587 907.058 524.666 904.425 524.342 902.134C524.041 900.015 523.361 897.957 522.163 896.463C522.169 896.396 522.182 896.303 522.208 896.178C522.333 895.579 522.685 894.685 523.336 893.505C524.624 891.173 526.781 888.258 529.358 885.252C531.919 882.265 534.818 879.275 537.524 876.797C540.273 874.279 542.676 872.426 544.262 871.581C550.348 868.335 644.628 810.797 690.889 782.508L690.893 782.506L1027.39 576.006L1029.31 574.832L1028.34 572.804L1005.34 524.304L1004.19 521.871L1001.85 523.202ZM522.16 896.6C522.16 896.598 522.159 896.59 522.158 896.577C522.161 896.594 522.161 896.603 522.16 896.6Z" fill="#151D3B" stroke="#D82148" stroke-width="5"/>
<path d="M53.085 1064.88L1051.58 501.375" stroke="#D82148" stroke-width="3"/>
<path d="M59.085 1086.88L1108.08 480.875" stroke="#D82148" stroke-width="3"/>
<path d="M61.585 1103.88L1166.08 460.875" stroke="#D82148" stroke-width="3"/>
<path d="M67.585 1124.38L1220.58 446.375" stroke="#D82148" stroke-width="3"/>
<path d="M207.085 1007.38C207.085 1012.58 221.418 1043.21 228.585 1057.88C235.741 1072.88 258.085 1043.38 255.085 1032.38C252.085 1021.38 228.585 998.875 223.585 995.375C218.585 991.875 207.085 1000.88 207.085 1007.38Z" fill="#151D3B" stroke="#D82148" stroke-width="3"/>
<path d="M351.585 184.375C343.985 184.375 341.085 197.042 340.585 203.375C345.085 204.875 370.585 192.875 369.585 190.375C368.585 187.875 361.085 184.375 351.585 184.375Z" stroke="#D82148" stroke-width="3"/>
<path d="M453.585 183.875C455.585 189.075 434.418 187.042 423.585 185.375C423.585 181.875 431.085 176.375 434.585 174.875C438.085 173.375 451.085 177.375 453.585 183.875Z" stroke="#D82148" stroke-width="3"/>
<path d="M1023.7 455.375L1030.2 464.375L1038.7 461.375C1037.03 458.875 1034.9 455.575 1033.7 452.375C1032.2 448.375 1037.7 445.875 1043.7 441.375C1049.7 436.875 1045.2 430.875 1041.2 425.875C1037.2 420.875 1023.7 417.375 1017.7 419.375C1011.7 421.375 1004.2 428.875 1002.2 440.375C1000.6 449.575 1015.87 454.208 1023.7 455.375Z" fill="#151D3B" stroke="#D82148" stroke-width="5"/>
<path d="M1191.82 402.947L1198.32 411.947L1206.82 408.947C1205.15 406.447 1203.02 403.147 1201.82 399.947C1200.32 395.947 1205.82 393.447 1211.82 388.947C1217.82 384.447 1213.32 378.447 1209.32 373.447C1205.32 368.447 1191.82 364.947 1185.82 366.947C1179.82 368.947 1172.32 376.447 1170.32 387.947C1168.72 397.147 1183.98 401.781 1191.82 402.947Z" fill="#151D3B" stroke="#D82148" stroke-width="5"/>
<path d="M1135.82 417.947L1142.32 426.947L1150.82 423.947C1149.15 421.447 1147.02 418.147 1145.82 414.947C1144.32 410.947 1149.82 408.447 1155.82 403.947C1161.82 399.447 1157.32 393.447 1153.32 388.447C1149.32 383.447 1135.82 379.947 1129.82 381.947C1123.82 383.947 1116.32 391.447 1114.32 402.947C1112.72 412.147 1127.98 416.781 1135.82 417.947Z" fill="#151D3B" stroke="#D82148" stroke-width="5"/>
<path d="M1079.82 435.947L1086.32 444.947L1094.82 441.947C1093.15 439.447 1091.02 436.147 1089.82 432.947C1088.32 428.947 1093.82 426.447 1099.82 421.947C1105.82 417.447 1101.32 411.447 1097.32 406.447C1093.32 401.447 1079.82 397.947 1073.82 399.947C1067.82 401.947 1060.32 409.447 1058.32 420.947C1056.72 430.147 1071.98 434.781 1079.82 435.947Z" fill="#151D3B" stroke="#D82148" stroke-width="5"/>
<path d="M1045.08 500.875C1045.08 497.625 1047.47 494.932 1050.58 494.451V507.299C1047.47 506.818 1045.08 504.125 1045.08 500.875ZM1052.58 507.299V494.451C1055.7 494.932 1058.08 497.625 1058.08 500.875C1058.08 504.125 1055.7 506.818 1052.58 507.299Z" fill="#151D3B" stroke="#D82148" stroke-width="2"/>
<path d="M1218.61 452.764C1215.45 451.985 1213.41 449.025 1213.69 445.885L1226.16 448.962C1224.95 451.871 1221.76 453.542 1218.61 452.764ZM1226.64 447.02L1214.17 443.944C1215.38 441.034 1218.56 439.364 1221.72 440.142C1224.87 440.92 1226.92 443.881 1226.64 447.02Z" fill="#151D3B" stroke="#D82148" stroke-width="2"/>
<path d="M1160.21 455.693C1163.1 454.207 1166.59 455.097 1168.44 457.648L1157.01 463.521C1156.02 460.531 1157.32 457.179 1160.21 455.693ZM1157.93 465.3L1169.35 459.427C1170.35 462.417 1169.05 465.769 1166.16 467.255C1163.27 468.741 1159.78 467.851 1157.93 465.3Z" fill="#151D3B" stroke="#D82148" stroke-width="2"/>
<path d="M1103.03 483.507C1100.76 481.174 1100.6 477.581 1102.5 475.067L1111.45 484.287C1108.87 486.111 1105.29 485.839 1103.03 483.507ZM1112.88 482.895L1103.94 473.674C1106.51 471.85 1110.09 472.122 1112.36 474.455C1114.62 476.787 1114.78 480.381 1112.88 482.895Z" fill="#151D3B" stroke="#D82148" stroke-width="2"/>
<path d="M401.085 979.375C401.085 980.575 362.418 1014.21 343.085 1030.88L330.585 1013.88L387.585 967.375C392.085 970.875 401.085 978.175 401.085 979.375Z" stroke="#D82148" stroke-width="3"/>
<path d="M174.817 1166.61C174.166 1167.26 172.992 1168.03 171.2 1168.88C169.444 1169.71 167.247 1170.53 164.689 1171.34C159.575 1172.95 153.197 1174.44 146.382 1175.77C133.028 1178.38 118.209 1180.32 108.416 1181.33C96.4515 1176.83 88.1399 1174.36 82.6504 1173.63C79.8996 1173.26 77.5247 1173.28 75.6812 1173.95C74.7145 1174.3 73.8314 1174.85 73.1536 1175.67C72.4711 1176.49 72.1133 1177.45 71.9826 1178.42C71.7367 1180.23 72.2787 1182.21 73.0221 1184.06C73.793 1185.97 74.9335 1188.1 76.2601 1190.35C77.784 1192.93 79.6733 1195.86 81.6593 1198.94C83.0769 1201.14 84.5438 1203.42 85.9624 1205.7C93.4579 1217.74 107.701 1224.85 121.898 1228.9C136.177 1232.98 150.935 1234.13 160.155 1233.87C165.174 1233.73 172.272 1231.49 180.203 1227.96C188.224 1224.39 197.384 1219.38 206.628 1213.41C225.065 1201.52 244.122 1185.68 255.139 1169.8C265.757 1154.49 286.496 1131.75 306.128 1111.56C325.752 1091.37 344.043 1073.96 349.677 1069.3C352.181 1067.23 356.47 1065.23 362.062 1063.36C367.588 1061.52 374.138 1059.91 380.961 1058.51C394.603 1055.72 409.141 1053.86 418.354 1052.86C423.308 1052.32 429.364 1050.48 435.759 1048.01C442.19 1045.53 449.121 1042.35 455.87 1039.06C462.622 1035.76 469.227 1032.33 474.998 1029.32L475.373 1029.12C481.009 1026.19 485.777 1023.7 489.138 1022.14C493.293 1020.21 496.288 1016.66 498.4 1012.76C500.519 1008.85 501.853 1004.42 502.605 1000.4C503.354 996.392 503.555 992.631 503.3 990.029C503.235 989.37 503.136 988.739 502.993 988.172C502.858 987.64 502.644 987.001 502.265 986.439C501.895 985.888 501.053 984.988 499.664 985.004C498.409 985.018 497.586 985.792 497.204 986.229C496.999 986.462 496.431 986.952 495.354 987.654C494.325 988.325 492.966 989.105 491.314 989.942C488.013 991.615 483.633 993.473 478.562 995.123C468.39 998.432 455.646 1000.84 443.377 999.392C437.249 998.671 432.637 997.188 429.028 995.058C425.438 992.939 422.713 990.106 420.456 986.489C416.286 979.806 413.824 970.704 410.592 958.753C410.237 957.443 409.873 956.097 409.497 954.717C407.773 948.398 408.185 938.919 410.028 927.864C411.854 916.903 415.024 904.737 418.539 893.23C422.05 881.732 425.889 870.945 429.036 862.756C430.609 858.662 432.005 855.228 433.096 852.688C434.234 850.037 434.945 848.592 435.165 848.262C436.118 846.833 437.017 844.65 437.693 842.278C438.379 839.868 438.891 837.063 438.959 834.312C439.027 831.599 438.67 828.711 437.408 826.307C436.079 823.775 433.797 821.904 430.456 821.403C428.508 821.11 426.268 821.72 424.116 822.596C421.871 823.509 419.32 824.886 416.594 826.567C411.132 829.933 404.714 834.677 398.214 839.857C385.203 850.228 371.644 862.533 364.349 869.576C361.107 872.706 354 876.491 344.33 880.503C334.787 884.463 323.116 888.5 311.093 892.238C287.023 899.72 261.771 905.934 249.682 907.908C243.086 908.985 235.103 912.65 226.996 917.424C218.831 922.232 210.313 928.304 202.596 934.415C194.877 940.526 187.912 946.716 182.855 951.78C180.332 954.307 178.245 956.594 176.77 958.476C176.036 959.413 175.413 960.301 174.962 961.104C174.567 961.807 174.085 962.812 174.085 963.875C174.085 964.599 174.305 965.637 174.549 966.652C174.819 967.777 175.209 969.221 175.698 970.931C176.677 974.355 178.077 978.938 179.769 984.355C181.571 990.124 183.718 996.879 186.052 1004.23C188.097 1010.66 190.285 1017.55 192.513 1024.63C202.094 1055.06 212.409 1089.01 215.625 1106.82C218.673 1123.7 211.257 1136.04 201.584 1145.53C196.732 1150.29 191.366 1154.27 186.542 1157.7C185.763 1158.26 184.991 1158.8 184.232 1159.34C180.42 1162.03 176.96 1164.46 174.817 1166.61Z" stroke="#D82148" stroke-width="5"/>
<path d="M83.085 1139.88L69.085 1135.88L51.585 1060.38L89.085 1038.88H101.585L123.585 1107.88L117.085 1118.88L83.085 1139.88Z" stroke="#D82148" stroke-width="3"/>
<path d="M248.443 955.043C246.183 948.64 244.309 944.455 241.57 941.322C244.921 942.092 248.96 942.652 252.344 942.299C254.037 942.123 255.796 941.697 257.234 940.757C258.775 939.751 259.865 938.196 260.073 936.124C260.181 935.045 260.565 934.637 261.217 933.945C261.487 933.659 261.802 933.325 262.162 932.874C262.436 932.532 262.874 931.921 263.031 931.086C263.211 930.123 262.955 929.238 262.487 928.526C262.074 927.897 261.498 927.4 260.938 926.994C260.355 926.572 259.63 926.137 258.77 925.674C256.953 924.696 255.588 924.24 254.452 923.978C254.007 923.876 253.597 923.804 253.288 923.749C253.226 923.738 253.168 923.728 253.114 923.718C252.764 923.655 252.583 923.614 252.438 923.566C252.061 923.44 251.241 923.102 248.165 918.488C245.003 913.746 242.2 911.204 239.493 908.748L239.452 908.711C236.804 906.309 234.23 903.967 231.148 899.464C224.832 890.232 217.435 872.518 212.899 861.429C210.615 855.845 203.705 840.649 195.988 825.903C192.128 818.529 188.042 811.221 184.211 805.265C182.296 802.288 180.424 799.615 178.658 797.428C176.917 795.273 175.172 793.454 173.493 792.31C170.83 790.494 168.994 789.018 167.513 787.764C167.1 787.414 166.697 787.066 166.301 786.724C165.331 785.885 164.403 785.083 163.46 784.375C160.578 782.214 157.336 780.736 150.191 778.95C143.794 777.351 139.512 776.07 135.599 774.899C135.268 774.8 134.939 774.702 134.613 774.605C130.402 773.348 126.457 772.202 120.616 770.932C109.277 768.467 100.905 764.61 96.4349 759.694C95.251 758.391 94.2385 757.112 93.2342 755.841L93.1857 755.78C92.2159 754.552 91.2254 753.299 90.1556 752.162C87.8992 749.764 85.2216 747.812 81.1089 746.931C77.4138 746.139 70.3825 745.381 63.4712 745.004C56.635 744.631 49.4358 744.6 45.5613 745.431C43.3217 745.911 40.9938 747.199 38.8462 748.716C36.6564 750.262 34.4578 752.187 32.4567 754.156C28.6536 757.898 25.2606 762.102 23.9694 764.524C22.3547 766.6 20.2119 768.946 17.9484 771.424C16.8 772.682 15.6205 773.973 14.4631 775.281C12.7598 777.205 11.1257 779.145 9.84316 780.952C8.60904 782.691 7.49346 784.586 7.1336 786.385C7.0344 786.881 6.87937 787.602 6.68522 788.506C5.94212 791.963 4.62604 798.086 3.67507 804.443C3.07379 808.462 2.60486 812.654 2.51545 816.417C2.42807 820.095 2.68929 823.694 3.77336 826.327C4.05371 827.008 4.30911 827.64 4.5479 828.232C5.71811 831.129 6.48942 833.039 7.84334 834.824C9.3182 836.768 11.5112 838.612 15.5034 841.97C15.816 842.233 16.1396 842.505 16.4747 842.788C21.348 846.891 24.7613 848.632 27.8296 850.197L28.0114 850.29C30.9899 851.809 33.6255 853.184 37.3752 856.699C41.3142 860.392 44.3247 863.161 47.7614 864.915C51.3156 866.728 55.1346 867.375 60.5851 867.375C64.2477 867.375 67.7346 867.621 71.0657 867.856C72.4251 867.952 73.7586 868.046 75.0675 868.121C79.3865 868.368 83.6379 868.425 86.9394 867.225C87.6709 866.959 88.2755 866.732 88.8146 866.53C89.3725 866.32 89.8602 866.138 90.3453 865.965C90.6665 865.851 90.9327 865.761 91.1535 865.692C91.1635 865.901 91.1701 866.187 91.1691 866.561C91.1673 867.253 91.1414 868.116 91.1025 869.131C91.0811 869.689 91.0558 870.292 91.0291 870.928C90.96 872.573 90.8812 874.447 90.8358 876.379C90.7122 881.632 90.8045 887.939 92.2134 892.166C93.1269 894.906 92.7505 897.535 92.278 900.835C92.2222 901.225 92.165 901.624 92.1085 902.034C91.596 905.749 91.2218 910.129 93.9414 914.661C94.678 915.889 95.4035 917.054 96.1067 918.182C97.6472 920.655 99.0801 922.955 100.287 925.368C101.995 928.785 103.085 932.143 103.085 935.875C103.085 940.294 103.602 945.599 104.643 950.348C105.164 952.724 105.827 955.014 106.649 957.007C107.457 958.969 108.485 960.811 109.817 962.143C111.289 963.614 113.645 964.542 115.837 965.265C117.182 965.708 118.754 966.158 120.341 966.611C121.393 966.912 122.451 967.214 123.453 967.518C126.096 968.318 128.631 969.202 130.782 970.326C132.941 971.453 134.53 972.729 135.475 974.216C136.271 975.468 137.035 976.763 137.816 978.085C140.852 983.227 144.132 988.783 150.438 993.827C157.972 999.854 163.568 1003.38 171 1003.38C172.481 1003.38 173.735 1003.49 174.868 1003.59L174.913 1003.59L175.046 1003.6C176.054 1003.69 177.223 1003.8 178.223 1003.67C179.471 1003.5 180.799 1002.93 181.618 1001.46C182.279 1000.28 182.415 998.816 182.415 997.375C182.415 995.57 181.874 993.431 181.112 991.308C180.332 989.135 179.246 986.777 177.996 984.467C175.526 979.903 172.256 975.238 169.154 972.501L169.08 972.435L169 972.375C166.743 970.682 165.977 968.58 165.785 966.06C165.686 964.751 165.747 963.372 165.847 961.888C165.866 961.614 165.886 961.333 165.907 961.047C165.993 959.852 166.085 958.575 166.085 957.375V957.193C166.085 955.07 166.085 953.473 165.929 951.994C166.044 952.282 166.163 952.57 166.287 952.86C166.968 954.448 167.583 955.851 168.133 957.105C168.824 958.681 169.413 960.023 169.898 961.202C170.326 962.24 170.635 963.062 170.835 963.716C171.044 964.398 171.085 964.744 171.085 964.875C171.085 965.496 171.282 966.032 171.395 966.314C171.534 966.657 171.712 967.008 171.896 967.341C172.266 968.009 172.769 968.799 173.333 969.645C173.993 970.634 174.807 971.806 175.677 973.057C176.277 973.92 176.903 974.82 177.523 975.725C179.075 977.992 180.657 980.382 181.968 982.65C183.298 984.952 184.257 986.971 184.669 988.519C185.729 992.493 188.063 998.043 190.491 1003.46C191.658 1006.06 192.836 1008.61 193.941 1011C195.197 1013.72 196.357 1016.23 197.295 1018.38C199.073 1022.44 201.917 1028.15 205.283 1032.58C206.959 1034.78 208.878 1036.81 210.989 1038.13C213.138 1039.47 215.727 1040.19 218.426 1039.23C222.238 1037.87 225.929 1035.59 228.205 1031.95C230.53 1028.23 231.141 1023.47 229.489 1017.69C227.079 1009.25 220.219 991.915 216.777 983.218C215.884 980.959 215.221 979.283 214.926 978.497C213.42 974.481 211.91 970.455 208.397 961.923C207.116 958.814 206.802 956.909 206.494 955.047C206.41 954.544 206.328 954.043 206.227 953.523C205.702 950.826 204.755 948.336 201.537 944.313C198.549 940.578 196.017 937.192 194.299 934.289C193.442 932.841 192.827 931.578 192.456 930.504C192.079 929.414 192.006 928.666 192.066 928.185C192.232 926.853 192.97 925.88 193.651 925.511C193.958 925.344 194.239 925.302 194.511 925.348C194.787 925.395 195.241 925.567 195.817 926.143C196.346 926.672 197.214 928.096 198.347 930.457C199.423 932.7 200.587 935.454 201.774 938.33C202.07 939.045 202.367 939.768 202.664 940.491C203.55 942.649 204.436 944.805 205.275 946.743C206.381 949.298 207.482 951.655 208.476 953.217C210.935 957.081 214.142 963.201 217.077 968.803C218.244 971.028 219.367 973.172 220.384 975.06C221.198 976.573 222.431 979.363 223.959 982.854L224.253 983.526C225.688 986.807 227.328 990.555 229.011 994.128C230.802 997.93 232.687 1001.63 234.475 1004.41C235.364 1005.79 236.293 1007.04 237.24 1007.98C238.085 1008.82 239.41 1009.88 241.085 1009.88C243.871 1009.88 247.104 1009.33 249.856 1008.09C252.555 1006.89 255.278 1004.78 256.026 1001.42C256.569 998.972 257.081 994.807 257.209 990.258C257.337 985.717 257.089 980.585 256.01 976.269C254.974 972.125 253.808 968.89 252.538 965.65C252.194 964.773 251.845 963.903 251.491 963.018C250.53 960.619 249.524 958.109 248.443 955.043ZM163.283 942.789C163.383 943.24 163.487 943.71 163.599 944.199C162.953 942.664 162.379 941.543 162.002 940.807C161.858 940.526 161.743 940.301 161.663 940.131C161.494 939.769 161.472 939.646 161.464 939.583C161.455 939.516 161.442 939.338 161.537 938.866C161.609 938.501 161.732 938.141 161.882 937.837C162.035 938.134 162.21 938.564 162.398 939.178C162.691 940.135 162.951 941.295 163.27 942.73L163.283 942.789ZM161.443 937.237C161.443 937.237 161.445 937.238 161.45 937.241C161.445 937.238 161.443 937.237 161.443 937.237Z" fill="#151D3B" stroke="#D82148" stroke-width="5"/>
<path d="M68 702.681C73.5 701.181 87.7 701.181 100.5 713.181C116.5 728.181 120 728.181 125.5 735.181C131 742.181 138 764.681 139 768.681" stroke="#D82148" stroke-width="5"/>
<path d="M671 828C675 815.833 691.5 790.4 725.5 786" stroke="#D82148" stroke-width="5"/>
<path d="M686.585 738.375C686.585 742.163 688.096 744.984 689.98 747.457C689.926 747.504 689.872 747.553 689.819 747.606C689.815 747.61 689.782 747.638 689.695 747.688C689.584 747.752 689.428 747.827 689.186 747.927C689.091 747.967 688.967 748.016 688.822 748.073C688.384 748.246 687.761 748.493 687.217 748.764C685.478 749.634 683.707 751.104 682.713 754.085C682.39 755.054 682.011 755.873 681.599 756.744C681.576 756.793 681.552 756.842 681.529 756.892C681.149 757.693 680.714 758.611 680.393 759.61C679.646 761.934 679.574 764.466 680.696 768.111C682.703 774.636 683.738 777.751 685.801 782.391C687.948 787.222 693.663 794.978 698.604 801.4C703.512 807.781 706.939 813.163 710.879 820.552C712.621 823.817 714.242 825.827 715.264 827.095C715.489 827.373 715.685 827.616 715.847 827.828C715.994 828.022 716.09 828.161 716.15 828.255C716.116 828.316 716.069 828.393 716.005 828.489C716.005 828.489 716.003 828.491 716 828.497C715.996 828.502 715.99 828.51 715.982 828.521C715.966 828.543 715.944 828.572 715.915 828.609C715.857 828.684 715.779 828.78 715.68 828.898C715.482 829.134 715.219 829.434 714.893 829.795C714.242 830.516 713.375 831.441 712.337 832.528C710.263 834.699 707.544 837.471 704.586 840.452C698.675 846.409 691.838 853.17 687.343 857.582C685.103 859.737 681.697 863.349 678.68 867.261C675.745 871.068 672.849 875.569 672.128 879.415C671.791 881.215 671.313 882.627 670.811 883.984C670.729 884.206 670.644 884.432 670.557 884.663C670.13 885.795 669.667 887.025 669.344 888.344C668.511 891.752 668.618 895.62 670.704 902.137C671.489 904.589 671.971 906.464 672.384 908.075C672.484 908.463 672.58 908.837 672.675 909.199C673.16 911.042 673.647 912.685 674.599 914.36C676.446 917.611 679.888 920.67 687.516 926.821C691.275 929.853 693.973 932.55 696.198 934.882C696.636 935.341 697.063 935.795 697.482 936.24C699.14 938 700.675 939.63 702.241 940.926C704.312 942.64 706.557 943.889 709.551 944.484C712.464 945.063 715.939 944.993 720.439 944.35C729.672 943.031 736.883 939.337 742.987 935.713C744.359 934.898 745.621 934.12 746.833 933.374C748.406 932.406 749.892 931.491 751.421 930.615C754.045 929.112 756.435 927.947 758.772 927.279C764.151 925.742 769.125 923.827 773.826 921.947C774.624 921.627 775.413 921.31 776.194 920.995C780.047 919.444 783.709 917.969 787.376 916.747C788.215 916.467 789.059 916.199 789.88 915.938C791.114 915.546 792.297 915.171 793.332 914.797C795.146 914.143 796.874 913.377 798.485 912.216C801.776 909.843 804.122 906.154 806.437 899.722C807.009 898.134 807.493 896.707 807.924 895.423C807.988 895.233 808.051 895.045 808.112 894.862C808.468 893.801 808.785 892.855 809.097 891.979C809.827 889.925 810.471 888.419 811.316 887.098C812.962 884.526 815.615 882.275 822.299 878.561C823.93 877.655 825.447 876.829 826.818 876.083C828.197 875.333 829.429 874.662 830.482 874.07C832.644 872.855 834.423 871.771 835.908 870.568C839.051 868.024 840.622 865.149 842.431 860.24C843.424 857.544 844.071 853.682 844.413 849.411C844.759 845.092 844.806 840.179 844.518 835.291C844.231 830.408 843.607 825.493 842.589 821.183C841.585 816.937 840.14 813.017 838.059 810.341C836.612 808.48 835.218 805.18 833.882 800.822C832.569 796.542 831.4 791.549 830.275 786.517C830.051 785.516 829.828 784.511 829.607 783.511C828.725 779.53 827.859 775.619 826.973 772.221C825.892 768.076 824.683 764.265 823.165 761.989C818.448 754.913 815.053 745.347 814.078 732.191C813.687 726.903 814.338 721.725 814.976 716.656C815.115 715.549 815.254 714.447 815.381 713.35C816.057 707.513 816.467 701.455 813.764 696.65C812.755 694.856 812.065 693.006 811.367 691.01C811.29 690.791 811.213 690.569 811.135 690.345C810.522 688.582 809.859 686.675 808.954 684.835C806.804 680.464 803.337 676.538 796.028 673.56C790.656 671.371 788.216 669.877 786.403 668.766C786.006 668.523 785.639 668.298 785.278 668.088C784.167 667.444 783.079 666.923 781.534 666.553C780.062 666.202 778.253 666.006 775.71 665.879C772.335 665.71 769.867 665.325 767.704 664.987C766.719 664.833 765.797 664.689 764.881 664.58C761.985 664.236 759.334 664.314 756.585 666.375C755.94 666.859 755.252 667.123 754.507 667.308C754.121 667.404 753.745 667.473 753.318 667.551L753.285 667.557C752.903 667.628 752.414 667.717 751.961 667.847C751.497 667.979 750.854 668.21 750.266 668.681C749.611 669.207 749.152 669.929 748.963 670.796C748.647 672.245 749.155 673.843 749.778 675.337C750.277 676.537 750.422 677.456 750.493 678.289C750.505 678.435 750.515 678.613 750.527 678.813C750.568 679.532 750.627 680.54 750.859 681.4C751.612 684.198 753.985 686.12 758.967 688.612C761.588 689.922 763.659 690.711 765.328 691.302C765.725 691.443 766.084 691.568 766.412 691.682C767.53 692.07 768.286 692.334 768.967 692.674C770.275 693.328 771.35 694.258 773.281 698.846C775.25 703.521 775.912 705.806 776.241 707.89C776.411 708.966 776.498 710.027 776.609 711.431L776.619 711.568C776.726 712.931 776.854 714.561 777.102 716.668C777.593 720.839 777.574 722.404 777.469 723.668C777.443 723.98 777.408 724.3 777.37 724.649C777.245 725.801 777.085 727.276 777.085 729.875C777.085 731.71 777.3 733.062 777.486 734.076L777.51 734.211C777.694 735.215 777.736 735.442 777.724 735.606C777.699 735.647 777.62 735.763 777.416 735.963C776.913 736.455 775.982 737.148 774.233 738.273C771.113 740.279 769.673 741.709 768.787 742.589C768.612 742.764 768.458 742.916 768.317 743.048C767.999 743.344 767.861 743.427 767.634 743.509C767.299 743.63 766.687 743.765 765.359 743.886C764.153 743.995 762.895 743.333 760.928 740.321C759.993 738.889 759.042 737.154 757.937 735.125L757.842 734.951C756.778 732.997 755.59 730.817 754.218 728.572C752.313 725.455 750.732 723.059 749.442 721.105C748.863 720.227 748.342 719.439 747.877 718.714C746.368 716.36 745.348 714.532 744.435 712.021C743.428 709.252 742.059 706.333 739.412 704.781C736.606 703.136 733.177 703.446 729.157 705.054C727.465 705.731 725.773 706.166 724.088 706.558C723.822 706.62 723.552 706.682 723.279 706.744C721.901 707.059 720.458 707.388 719.199 707.827C717.655 708.366 716.042 709.177 714.849 710.66C713.623 712.182 713.085 714.102 713.085 716.375C713.085 720.241 713.341 722.548 714.151 724.978C714.628 726.41 715.33 727.941 716.217 729.875C716.692 730.911 717.22 732.063 717.795 733.377C719.179 736.542 720.86 739.694 722.716 742.8C721.849 741.444 721.223 740.293 720.594 739.135C720.385 738.751 720.176 738.367 719.958 737.974C718.968 736.192 717.871 734.405 715.967 732.229C715.249 731.409 714.897 730.786 714.689 730.3C714.495 729.846 714.401 729.465 714.264 728.911C714.243 728.826 714.221 728.738 714.198 728.644C714.027 727.962 713.783 727.063 713.194 726.101C712.605 725.14 711.766 724.261 710.585 723.375C708.283 721.649 705.984 720.726 703.496 720.815C701.091 720.9 698.89 721.925 696.76 723.255C692.714 725.784 686.585 730.435 686.585 738.375ZM716.24 828.071C716.24 828.071 716.239 828.073 716.238 828.078C716.239 828.074 716.24 828.071 716.24 828.071Z" fill="#151D3B" stroke="#D82148" stroke-width="5"/>
<path d="M732 847.5C734 853.667 757.9 885.6 767.5 890C779.5 895.5 797.5 897 806.5 890C813.7 884.4 824.5 877.333 829 874.5" stroke="#D82148" stroke-width="5" stroke-linecap="round"/>
<path d="M363 414C366.5 423.667 377.1 445.7 391.5 456.5" stroke="#D82148" stroke-width="5"/>
<path d="M119.505 795C108.505 803.5 86.6054 824.5 87.0054 840.5C87.5054 860.5 87.0054 861.5 91.5054 867.5" stroke="#D82148" stroke-width="5"/>
<path d="M140 978.5C130.425 963.5 132.64 944.4 133.44 940" stroke="#D82148" stroke-width="5" stroke-linecap="round"/>
</svg>
