<svg width="978" height="1322" viewBox="0 0 978 1322" fill="none" xmlns="http://www.w3.org/2000/svg">
<path d="M131.5 374.036C129.5 372.436 136.834 298.369 139.5 276.536C164 294.036 249.5 341.536 249.5 292.536C249.5 300.703 250.4 318.636 254 325.036C258.5 333.036 286 353 281 356.5C276 360 197.5 385.036 192 383.036C186.5 381.036 134 376.036 131.5 374.036Z" fill="#151D3B" stroke="#D82148" stroke-width="5" stroke-linecap="round"/>
<path d="M200 321.037C186.5 319.037 140 276.537 138.5 275.037C134.5 270.703 126.7 258.936 127.5 246.536C128.5 231.036 131.5 197.036 143.5 178.036C155.5 159.036 183 140.537 200 137.537C217 134.537 225.5 137.537 235.5 140.537C245.5 143.537 252 153.537 259.5 160.037C267 166.537 266.5 197.537 266 205.537C265.5 213.537 262 226.537 259.5 236.537C257 246.537 259.5 257.037 256.5 264.037C253.5 271.037 255 286.037 256.5 292.037C258 298.037 251 307.537 244.5 314.537C238 321.537 213.5 323.037 200 321.037Z" fill="#151D3B" stroke="#D82148" stroke-width="5"/>
<path d="M235 196.036C238.667 196.703 246.5 197.336 248.5 194.536C251 191.036 253.5 187.036 254 185.536" stroke="#D82148" stroke-width="5" stroke-linecap="round"/>
<path d="M172.5 216.536C174.5 216.536 179.5 216.536 183.5 216.536C188.5 216.536 193.5 209.536 195 207.036" stroke="#D82148" stroke-width="5" stroke-linecap="round"/>
<path d="M226 185.036C224.5 188.036 224 195.036 226 198.536C228 202.036 231.5 204.036 235 206.536C238.5 209.036 240 215.036 238 220.036C236 225.036 239 229.036 240 232.036C241 235.036 245 243.036 246 248.536C247 254.036 245 257.536 240 260.036C235 262.536 231 261.036 226 260.036C222 259.236 214.334 254.703 211 252.536C209.334 250.036 206.7 244.236 209.5 241.036C213 237.036 215.5 236.036 215.5 234.036" stroke="#D82148" stroke-width="5" stroke-linecap="round"/>
<path d="M5 422.036C11.6667 416.369 25.5 404.536 27.5 402.536C29.5 400.536 70.3333 379.703 90.5 369.536C122.833 373.703 189.6 381.736 198 380.536C208.5 379.036 264 363.036 272 355.036C280 347.036 292 325.536 296.5 317.536C311.5 314.869 342.1 309.536 344.5 309.536C347.5 309.536 429 321.036 441 338.036C453 355.036 523.5 545.536 532.5 562.536C541.5 579.536 598 687.036 601.5 703.536C605 720.036 605 843.536 601.5 851.536C598 859.536 611.5 874.536 611.5 881.536C611.5 888.536 601.5 895.036 601.5 902.036V938.036C601.5 942.036 605 1008.54 601.5 1042.04C598 1075.54 597.5 1200.04 601.5 1222.04C605.492 1243.99 611.975 1311.77 615.977 1318.5C615.987 1318.51 615.995 1318.52 616 1318.54C615.992 1318.52 615.984 1318.51 615.977 1318.5C614.047 1316.22 515.703 1317.57 466.5 1318.54C463.167 1298.2 456.9 1253.04 458.5 1235.04C460.5 1212.54 465.5 1142.54 458.5 1122.54C451.5 1102.54 419.5 1040.04 411.5 1033.04C403.5 1026.04 379.5 1040.54 375 1056.54C370.5 1072.54 356.5 1150.04 358 1169.54C359.5 1189.04 365 1236.04 358 1242.54C352.4 1247.74 360.667 1295.37 365.5 1318.54H218.5C207.667 1248.2 185.9 1104.24 185.5 1091.04C185 1074.54 180 1100.04 175 1102.54C170 1105.04 156 1113.54 153 1113.54C150 1113.54 161 1132.54 156 1135.04C151 1137.54 128 1140.54 124.5 1143.04C121 1145.54 120.5 1158.54 124.5 1164.04C128.5 1169.54 137.5 1175.04 136.5 1180.04C135.5 1185.04 123.5 1187.54 122 1188.04C120.5 1188.54 109.5 1202.54 108.5 1203.54C107.7 1204.34 93.1667 1216.87 86 1223.04V1231.54H50.5V1238.04L3.5 1231.54L5 422.036Z" fill="#151D3B"/>
<path d="M5 422.036C11.6667 416.369 25.5 404.536 27.5 402.536C29.5 400.536 70.3333 379.703 90.5 369.536C122.833 373.703 189.6 381.736 198 380.536C208.5 379.036 264 363.036 272 355.036C280 347.036 292 325.536 296.5 317.536C311.5 314.869 342.1 309.536 344.5 309.536C347.5 309.536 429 321.036 441 338.036C453 355.036 523.5 545.536 532.5 562.536C541.5 579.536 598 687.036 601.5 703.536C605 720.036 605 843.536 601.5 851.536C598 859.536 611.5 874.536 611.5 881.536C611.5 888.536 601.5 895.036 601.5 902.036C601.5 909.036 601.5 934.036 601.5 938.036C601.5 942.036 605 1008.54 601.5 1042.04C598 1075.54 597.5 1200.04 601.5 1222.04C605.5 1244.04 612 1312.04 616 1318.54C615.145 1316.2 515.977 1317.56 466.5 1318.54C463.167 1298.2 456.9 1253.04 458.5 1235.04C460.5 1212.54 465.5 1142.54 458.5 1122.54C451.5 1102.54 419.5 1040.04 411.5 1033.04C403.5 1026.04 379.5 1040.54 375 1056.54C370.5 1072.54 356.5 1150.04 358 1169.54C359.5 1189.04 365 1236.04 358 1242.54C352.4 1247.74 360.667 1295.37 365.5 1318.54H218.5C207.667 1248.2 185.9 1104.24 185.5 1091.04C185 1074.54 180 1100.04 175 1102.54C170 1105.04 156 1113.54 153 1113.54C150 1113.54 161 1132.54 156 1135.04C151 1137.54 128 1140.54 124.5 1143.04C121 1145.54 120.5 1158.54 124.5 1164.04C128.5 1169.54 137.5 1175.04 136.5 1180.04C135.5 1185.04 123.5 1187.54 122 1188.04C120.5 1188.54 109.5 1202.54 108.5 1203.54C107.7 1204.34 93.1667 1216.87 86 1223.04V1231.54H50.5V1238.04L3.5 1231.54L5 422.036Z" stroke="#D82148" stroke-width="5"/>
<path d="M354.5 477C372 548.5 376.254 578 376.254 591H388.754C388.754 587.4 370 474.5 319.754 313C269.508 151.5 298.654 316.1 306.254 322.5C315.754 330.5 341.422 423.566 354.5 477Z" fill="#151D3B" stroke="#D82148" stroke-width="5" stroke-linecap="round"/>
<path d="M220.5 293.536C226.667 293.369 239.7 292.036 242.5 288.036" stroke="#D82148" stroke-width="5"/>
<path d="M212.5 277.036C217.667 276.869 228.9 276.236 232.5 275.036C237 273.536 243.5 270.036 246 268.036" stroke="#D82148" stroke-width="5"/>
<path d="M52.9997 398.536C58.9997 404.136 76.833 404.203 84.9997 403.536C92.4996 406.537 107.5 386.536 120.5 381.036C133.5 375.536 137.5 337.536 141 330.036C144.5 322.536 137.5 297.536 135.5 290.536C133.5 283.536 133.5 257.768 133.5 242.536C133.5 226.536 139.5 220.536 149.5 209.036C159.5 197.536 176 190.536 186 184.536C196 178.536 204.5 178.536 214 169.036C223.5 159.536 232.5 159.036 242.5 159.036C252.5 159.036 255.5 156.036 260 161.536C264.5 167.036 258.5 175.536 258.5 180.536C258.5 185.536 262.5 184.036 267 191.036C271.5 198.036 266 204.536 262.5 218.536C259 232.536 261.5 259.536 260 263.036C258.5 266.536 258.5 282.036 257 287.036C255.5 292.036 251 323.036 255.5 334.036C260 345.036 269 348.036 280 349.036C291 350.036 296 347.036 306 345.036C316 343.036 319.5 342.036 327.5 330.036C335.5 318.036 334 305.536 331 297.536C328 289.536 321.5 282.036 316.5 269.536C311.5 257.036 322 254.536 327.5 242.536C333 230.536 341 227.036 346 218.536C351 210.036 357 179.536 359 172.536C361 165.536 354 144.036 341 135.036C328 126.037 321.5 114.536 309.5 98.5361C297.5 82.5361 301 77.5364 293.5 64.5361C286 51.5359 271 37.5361 256 25.0364C241 12.5366 232.5 16.0364 210 7.53636C187.5 -0.963636 176 4.53636 155 7.53636C134 10.5364 117 17.0364 101.5 25.0364C85.9998 33.0364 58.9998 69.0364 51.4998 77.5364C43.9998 86.0364 36.9997 88.5364 26.4998 92.0364C15.9998 95.5364 20.4998 98.0364 21.4998 105.036C22.4998 112.036 21.4998 114.536 10.4998 135.036C-0.500244 155.536 12.4998 171.536 6.49974 191.036C0.499714 210.536 10.9997 222.036 6.49974 238.036C1.99974 254.036 4.99974 298.536 6.49974 303.036C7.99974 307.536 38.4997 323.536 36.9997 326.536C35.4997 329.536 29.4997 339.036 30.9997 354.536C32.4997 370.036 46.4997 361.036 43.4997 370.536C40.4997 380.036 45.4997 391.536 52.9997 398.536Z" fill="#151D3B" stroke="#D82148" stroke-width="5"/>
<path d="M266.5 760C239.833 825 176.758 951.282 136.5 983C87 1022 47 1039.5 3 1045.5" stroke="#D82148" stroke-width="5" stroke-linecap="round"/>
<path d="M348.563 1065C334.163 1066.6 253.563 1049 215.063 1040C73.0626 1022.5 122.563 774.5 166.063 742C209.563 709.5 277.063 696.5 299.563 696.5C317.563 696.5 336.063 674.833 343.063 664C347.396 639 361.263 588.7 382.063 587.5C408.063 586 400.063 592.5 400.063 635C400.063 669 422.396 672.5 433.563 670L781.063 295.5L817.563 327C722.063 433.833 485.863 696.2 483.063 703C479.563 711.5 478.063 730 495.563 742C513.063 754 537.063 762.5 543.563 769.5C548.763 775.1 543.729 789.5 540.563 796C507.563 810 494.563 832 488.563 840.5C497.563 907.5 469.563 974 450.563 1006C431.563 1038 366.563 1063 348.563 1065Z" fill="#151D3B" stroke="#D82148" stroke-width="5" stroke-linecap="round"/>
<path d="M785.73 257.664L792.889 255.148L795.789 258.983L801.308 254.789L798.677 251.554L802.707 245.023L797.066 239.031C791.656 237.258 784.374 245.601 781.41 249.995L785.73 257.664Z" fill="#151D3B" stroke="#D82148" stroke-width="5" stroke-linecap="round"/>
<path d="M878.992 190.789L886.499 188.177L889.557 192.207L895.338 187.831L892.563 184.43L896.772 177.599L890.828 171.298C885.143 169.42 877.527 178.14 874.429 182.735L878.992 190.789Z" fill="#151D3B" stroke="#D82148" stroke-width="5" stroke-linecap="round"/>
<path d="M903.946 174.107L911.441 171.856L914.725 175.994L920.389 171.914L917.421 168.413L921.379 161.826L915.065 155.304C909.213 153.182 901.884 161.489 898.952 165.908L903.946 174.107Z" fill="#151D3B" stroke="#D82148" stroke-width="5" stroke-linecap="round"/>
<path d="M856.979 206.028L864.306 203.644L867.398 207.631L872.99 203.494L870.19 200.126L874.184 193.567L868.206 187.31C862.575 185.362 855.27 193.687 852.322 198.093L856.979 206.028Z" fill="#151D3B" stroke="#D82148" stroke-width="5" stroke-linecap="round"/>
<path d="M833.14 223.587L840.467 221.204L843.559 225.19L849.151 221.053L846.351 217.685L850.345 211.126L844.367 204.869C838.737 202.921 831.432 211.246 828.483 215.653L833.14 223.587Z" fill="#151D3B" stroke="#D82148" stroke-width="5" stroke-linecap="round"/>
<path d="M809.569 240.105L816.727 237.589L819.628 241.424L825.147 237.23L822.515 233.995L826.545 227.464L820.905 221.472C815.495 219.698 808.213 228.042 805.248 232.435L809.569 240.105Z" fill="#151D3B" stroke="#D82148" stroke-width="5" stroke-linecap="round"/>
<path d="M777.319 280.787C778.119 286.086 780.207 293.566 781.151 296.644L819.761 327.032C846.785 303.551 864.366 314.275 871.746 312.3C879.125 310.325 898.878 256.607 908.874 239.959C918.87 223.311 917.296 230.245 935.464 229.367C953.631 228.489 960.638 214.158 966.962 197.734C973.287 181.31 950.153 167.772 936.4 165.509C922.647 163.245 821.884 241.927 800.192 257.153C778.5 272.378 776.319 274.163 777.319 280.787Z" fill="#151D3B" stroke="#D82148" stroke-width="4" stroke-linecap="round"/>
<ellipse cx="938.697" cy="199.052" rx="8.85778" ry="8.36568" transform="rotate(38.2041 938.697 199.052)" fill="#D82148"/>
<circle cx="809.31" cy="272.748" r="8.36568" transform="rotate(38.2041 809.31 272.748)" fill="#D82148"/>
<ellipse cx="908.697" cy="215.052" rx="8.85778" ry="8.36568" transform="rotate(38.2041 908.697 215.052)" fill="#D82148"/>
<circle cx="880.31" cy="233.748" r="8.36568" transform="rotate(38.2041 880.31 233.748)" fill="#D82148"/>
<circle cx="857.31" cy="246.748" r="8.36568" transform="rotate(38.2041 857.31 246.748)" fill="#D82148"/>
<circle cx="834.31" cy="259.748" r="8.36568" transform="rotate(38.2041 834.31 259.748)" fill="#D82148"/>
<path d="M344.917 921.812C345.717 911.412 304.25 877.812 283.417 862.312C272.583 851.479 261.443 835.961 280.917 819.812C303 801.5 317.5 780.812 341 733C358.238 697.927 357.417 669.312 366.417 635.812C375.417 602.312 400.417 598.312 388.417 622.312C376.417 646.312 405.417 687.812 422.917 692.312C440.417 696.812 468.917 680.812 463.917 697.812C458.917 714.812 463.917 746.312 478.417 759.312C492.917 772.312 522.917 774.312 518.917 780.812C514.917 787.312 479.417 801.812 463.917 825.812C448.417 849.812 452.417 906.812 442.417 960.312C432.417 1013.81 371.417 1031.31 344.917 1042.81C318.417 1054.31 216.417 1026.81 283.417 1002.81C350.417 978.812 343.917 934.812 344.917 921.812Z" fill="#151D3B" stroke="#D82148" stroke-width="5" stroke-linecap="round"/>
<path d="M427 765.502C424.6 764.302 392.667 735.669 377 721.502C377 706.502 392.5 707.002 394.5 707.002C396.1 707.002 428.833 734.002 445 747.502C448.5 766.002 430 767.002 427 765.502Z" fill="#151D3B" stroke="#D82148" stroke-width="5" stroke-linecap="round"/>
<path d="M363 753L809.562 274" stroke="#D82148" stroke-width="2" stroke-linecap="round"/>
<path d="M374.5 752L834.562 261.5" stroke="#D82148" stroke-width="2" stroke-linecap="round"/>
<path d="M384.562 752.5L858.562 248.5" stroke="#D82148" stroke-width="2" stroke-linecap="round"/>
<path d="M881.062 236L384.562 765.5" stroke="#D82148" stroke-width="2" stroke-linecap="round"/>
<path d="M909.062 217L395.062 766.5" stroke="#D82148" stroke-width="2" stroke-linecap="round"/>
<path d="M937.062 201L399.562 774" stroke="#D82148" stroke-width="2" stroke-linecap="round"/>
<path d="M281.5 757C272.3 757 268 761.333 267 763.5C268.167 788 270.9 837.7 272.5 840.5C274.5 844 292.5 850.5 300 849C307.5 847.5 312.5 849.5 319.5 850.5C323.746 851.107 340.941 852.212 353.5 855.5C360 855.5 368.056 851.141 371 849C376.5 845 376 840.5 373 838.5C372.168 837.945 369.814 839.08 366.5 840.5C363 842 358 842 357 840.5C355 837.5 357.5 832 360 829.5C362.5 827 384 824.5 388.5 824C393 823.5 401.687 816.091 403.5 813.5C407 808.5 401.482 803.474 400 804.5C393.5 809 376.167 805.5 365 806.5C364.833 805.667 364.6 803.6 365 802C365.5 800 394 802 400 796.5C405.529 791.432 417.485 779.251 407 780C393 781 366.5 777.5 366.5 776.5C375.7 773.3 395.333 775.167 404 776.5C404.333 774.667 404.8 769.5 404 763.5C403 756 397.5 753 392 753H345C320 753 293 757 281.5 757Z" fill="#151D3B" stroke="#D82148" stroke-width="5" stroke-linecap="round"/>
<path d="M120 653.036C121.6 640.636 109 551.869 102.5 509.036H7.5L6 1228L49 1235.5V1227.5H83.5L84 1221.5L119 1190.54C124 1187.7 134.8 1181.64 138 1180.04C142 1178.04 138 1165.5 138 1165.5C138 1165.5 145 1148.5 149 1148.5L155.5 1133.5L152.5 1114.04L176.5 1101.04C178.167 1096.37 181.9 1086.24 183.5 1083.04C185.5 1079.04 218 1017.04 227 991.036C248 984.036 272.5 918.536 274 907.536C275.5 896.536 276 757.036 266.5 757.036C257 757.036 171.5 749.036 167 748.036C162.5 747.036 161 742.036 156 741.036C151 740.036 150.5 745.536 146.5 745.536C142.5 745.536 129 748.536 120 745.536C111 742.536 118 668.536 120 653.036Z" fill="#151D3B"/>
<path d="M266.5 760C239.833 825 176.758 951.282 136.5 983C87 1022 47 1039.5 3 1045.5" stroke="#D82148" stroke-width="5" stroke-linecap="round"/>
<path d="M102.5 509.036C109 551.869 121.6 640.636 120 653.036C118 668.536 111 742.536 120 745.536C129 748.536 142.5 745.536 146.5 745.536C150.5 745.536 151 740.036 156 741.036C161 742.036 162.5 747.036 167 748.036C171.5 749.036 257 757.036 266.5 757.036C276 757.036 275.5 896.536 274 907.536C272.5 918.536 248 984.036 227 991.036C218 1017.04 185.5 1079.04 183.5 1083.04C181.9 1086.24 178.167 1096.37 176.5 1101.04L152.5 1114.04L157 1133.04L147.5 1149L138 1163C138 1163 142 1178.04 138 1180.04C134.8 1181.64 124 1187.7 119 1190.54L86.5 1221.04V1230.04H50.5V1238.04L3 1230.04" stroke="#D82148" stroke-width="5" stroke-linecap="round"/>
<path d="M120 745.536C111 742.536 118 668.536 120 653.036C123 655.072 152 705.5 149.5 708C147 710.5 148.5 716.5 152 719C154.8 721 159.5 735.833 161.5 743C157 742 161 742.036 156 741.036C151 740.036 150.5 745.536 146.5 745.536C142.5 745.536 129 748.536 120 745.536Z" fill="#D82148"/>
<path d="M102.5 509.036C109 551.869 121.6 640.636 120 653.036M120 653.036C118 668.536 111 742.536 120 745.536C129 748.536 142.5 745.536 146.5 745.536C150.5 745.536 151 740.036 156 741.036C161 742.036 157 742 161.5 743C159.5 735.833 154.8 721 152 719C148.5 716.5 147 710.5 149.5 708C152 705.5 123 655.072 120 653.036Z" stroke="#D82148" stroke-width="5" stroke-linecap="round"/>
<path d="M463.5 934.5C454.5 936.5 438.4 932.2 434 933C438.4 930.2 446 922.2 459.5 919.5C467 918 478 921.9 478 923.5C478 925.1 471.5 932 463.5 934.5Z" fill="#D82148"/>
<path d="M302 941C310 942.5 333.2 946.5 340 946.5C348.5 946.5 428.5 934 434 933M434 933C438.4 932.2 454.5 936.5 463.5 934.5C471.5 932 478 925.1 478 923.5C478 921.9 467 918 459.5 919.5C446 922.2 438.4 930.2 434 933Z" stroke="#D82148" stroke-width="5" stroke-linecap="round"/>
<circle cx="300" cy="940" r="7" fill="#D82148"/>
<circle cx="298" cy="1020" r="6" fill="#D82148"/>
<circle cx="298.5" cy="1020.5" r="12" stroke="#D82148" stroke-width="3"/>
<circle cx="333.5" cy="1020.5" r="12" stroke="#D82148" stroke-width="3"/>
<circle cx="334" cy="1020" r="6" fill="#D82148"/>
<path d="M599.5 861L588.5 844L593.5 821.5L580 803.5V773.5C575 765.333 564.8 746.6 564 737C563 725 570.5 715.5 564 707C558.8 700.2 555.167 686.833 554 681" stroke="#D82148" stroke-width="5" stroke-linecap="round"/>
<path d="M502.5 694C503.667 700.333 506 718.8 512 722C519.5 726 538 722.5 543.5 717.5C549 712.5 556.5 700 558.5 694" stroke="#D82148" stroke-width="5" stroke-linecap="round"/>
<path d="M527.5 706.536C522.3 706.536 499 689.869 488 681.536C481.5 679.536 491.5 670.036 488 669.036C484.5 668.036 481.5 667.536 478 666.036C474.5 664.536 478.025 656.005 480 653.536C482 651.036 498 654.536 495.5 653.536C493 652.536 488.5 647.536 489 644.536C489.497 641.554 491.476 639.626 499.358 641.502C496.407 640.667 493.532 632.005 495.5 630.036C497.5 628.036 510 626.036 514.5 626.036H550C555.5 626.036 570 627.536 575 630.036C580 632.536 575 646.536 570 646.536C565 646.536 546 650.036 547 651.036C548 652.036 555 653.036 560 653.036C565 653.036 572 654.036 575 656.036C578 658.036 577 664.536 576.5 667.536C576 670.536 570 672.536 565.5 675.036C568.5 678.036 562 691.036 559 692.036C556 693.036 541 691.536 542 694.036C543 696.536 541.5 699.536 541 702.536C540.5 705.536 534 706.536 527.5 706.536Z" fill="#151D3B"/>
<path d="M488 681.536C499 689.869 522.3 706.536 527.5 706.536C534 706.536 540.5 705.536 541 702.536C541.5 699.536 543 696.536 542 694.036C541 691.536 556 693.036 559 692.036C562 691.036 568.5 678.036 565.5 675.036C570 672.536 576 670.536 576.5 667.536C577 664.536 578 658.036 575 656.036C572 654.036 565 653.036 560 653.036C555 653.036 548 652.036 547 651.036C546 650.036 565 646.536 570 646.536C575 646.536 580 632.536 575 630.036C570 627.536 555.5 626.036 550 626.036C544.5 626.036 519 626.036 514.5 626.036C510 626.036 497.5 628.036 495.5 630.036C493.5 632.036 496.5 640.947 499.5 641.536C491.5 639.603 489.5 641.536 489 644.536C488.5 647.536 493 652.536 495.5 653.536C498 654.536 482 651.036 480 653.536C478.025 656.005 474.5 664.536 478 666.036C481.5 667.536 484.5 668.036 488 669.036C491.5 670.036 481.5 679.536 488 681.536Z" stroke="#D82148" stroke-width="5" stroke-linecap="round"/>
<path d="M541.5 693.5C517 676 493.5 669 487 669" stroke="#D82148" stroke-width="5" stroke-linecap="round"/>
<path d="M495 654C517.333 660.333 562.6 673.4 565 675" stroke="#D82148" stroke-width="5" stroke-linecap="round"/>
<path d="M498.5 641C500.5 642 538 649 548 650.5" stroke="#D82148" stroke-width="5" stroke-linecap="round"/>
<path d="M544.5 769.5C552.833 779.5 566 797.5 579 802.5" stroke="#D82148" stroke-width="5" stroke-linecap="round"/>
<path d="M121 416.5C166 400.333 268 368 316 368" stroke="#D82148" stroke-width="5" stroke-linecap="round"/>
<path d="M189 490C234 473.833 289 457 337 457" stroke="#D82148" stroke-width="5" stroke-linecap="round"/>
<path d="M173 475C218 458.833 285 437.5 333 437.5" stroke="#D82148" stroke-width="5" stroke-linecap="round"/>
<path d="M162 458C207 441.833 282 417 330 417" stroke="#D82148" stroke-width="5" stroke-linecap="round"/>
<path d="M232 545.5C277 529.333 290.5 522 342 518" stroke="#D82148" stroke-width="5" stroke-linecap="round"/>
<path d="M279.5 631C316 611 301.5 610.5 353 606.5" stroke="#D82148" stroke-width="5" stroke-linecap="round"/>
<path d="M268 615C311 594.5 302.5 595 354 591" stroke="#D82148" stroke-width="5" stroke-linecap="round"/>
<path d="M263 599C305.5 581.5 302.5 579 354 575" stroke="#D82148" stroke-width="5" stroke-linecap="round"/>
<path d="M257 583.5C302 567.333 298 564.5 349.5 560.5" stroke="#D82148" stroke-width="5" stroke-linecap="round"/>
<path d="M252 569.5C297 553.333 294.5 552 346 548" stroke="#D82148" stroke-width="5" stroke-linecap="round"/>
<path d="M242 557.5C287 541.333 293.5 539 345 535" stroke="#D82148" stroke-width="5" stroke-linecap="round"/>
<path d="M216.5 524.5C261.5 508.333 289.5 500 340.5 495.5" stroke="#D82148" stroke-width="5" stroke-linecap="round"/>
<path d="M201 505.5C246 489.333 290.5 478 338.5 478" stroke="#D82148" stroke-width="5" stroke-linecap="round"/>
<path d="M142 435C187 418.833 274.5 391 322.5 391" stroke="#D82148" stroke-width="5" stroke-linecap="round"/>
<path d="M197 1065L201 1073.5" stroke="#D82148" stroke-width="5" stroke-linecap="round"/>
<path d="M204 1089.5L208 1098" stroke="#D82148" stroke-width="5" stroke-linecap="round"/>
<path d="M216 1134.5L220 1143" stroke="#D82148" stroke-width="5" stroke-linecap="round"/>
<path d="M223 1157.5L227 1166" stroke="#D82148" stroke-width="5" stroke-linecap="round"/>
<path d="M229 1179.5L233 1188" stroke="#D82148" stroke-width="5" stroke-linecap="round"/>
<path d="M236 1201.5L240 1210" stroke="#D82148" stroke-width="5" stroke-linecap="round"/>
<path d="M242 1225.5L246 1234" stroke="#D82148" stroke-width="5" stroke-linecap="round"/>
<path d="M250 1248.5L254 1257" stroke="#D82148" stroke-width="5" stroke-linecap="round"/>
<path d="M256 1271.5L260 1280" stroke="#D82148" stroke-width="5" stroke-linecap="round"/>
<path d="M263 1293.5L267 1302" stroke="#D82148" stroke-width="5" stroke-linecap="round"/>
<path d="M271 1311L275 1319.5" stroke="#D82148" stroke-width="5" stroke-linecap="round"/>
<path d="M210 1112.5L214 1121" stroke="#D82148" stroke-width="5" stroke-linecap="round"/>
</svg>
